<?xml version="1.0" standalone="no"?>
<!DOCTYPE svg PUBLIC "-//W3C//DTD SVG 1.1//EN" "http://www.w3.org/Graphics/SVG/1.1/DTD/svg11.dtd" >
<svg xmlns="http://www.w3.org/2000/svg" xmlns:xlink="http://www.w3.org/1999/xlink" version="1.1">
<metadata>
Created by FontForge 20170910 at Mon Dec 14 00:19:24 1998
 By Jimmy Wärting
Copyright 1990-1998 Bitstream Inc.  All rights reserved.
</metadata>
<defs>
<font id="News701BT-RomanA" horiz-adv-x="1024" >
  <font-face 
    font-family="News701 BT"
    font-weight="400"
    font-stretch="normal"
    units-per-em="2048"
    panose-1="2 4 6 3 5 5 5 2 2 4"
    ascent="1556"
    descent="-492"
    x-height="1118"
    cap-height="1475"
    bbox="-342 -483 2609 1980"
    underline-thickness="133"
    underline-position="-254"
    unicode-range="U+0020-F002"
  />
<missing-glyph horiz-adv-x="1229" 
d="M102 -362v1806h1024v-1806h-1024zM217 -248h795v1577h-795v-1577z" />
    <glyph glyph-name=".notdef" horiz-adv-x="1229" 
d="M102 -362v1806h1024v-1806h-1024zM217 -248h795v1577h-795v-1577z" />
    <glyph glyph-name=".null" horiz-adv-x="0" 
 />
    <glyph glyph-name="nonmarkingreturn" horiz-adv-x="573" 
 />
    <glyph glyph-name="space" unicode=" " horiz-adv-x="573" 
 />
    <glyph glyph-name="exclam" unicode="!" horiz-adv-x="682" 
d="M285 428l-68 918q0 5 -1 14t-1 14q0 67 30.5 100t92.5 33t92.5 -33t30.5 -100q0 -4 -1 -13.5t-1 -14.5l-68 -918h-106zM203 100q0 58 40 99t97 41q58 0 98.5 -41t40.5 -99q0 -57 -41 -98t-98 -41t-97 41t-40 98z" />
    <glyph glyph-name="quotedbl" unicode="&#x22;" horiz-adv-x="686" 
d="M526 860h-34l-70 459q-1 7 -1.5 14.5t-0.5 22.5q0 51 22.5 78.5t65.5 27.5q42 0 66 -27t24 -75q0 -16 -0.5 -24.5t-1.5 -16.5zM195 860h-35l-70 459q-2 17 -3 26t-1 15q0 48 24 75t66 27q44 0 67 -27.5t23 -78.5q0 -16 -0.5 -23.5t-1.5 -14.5z" />
    <glyph glyph-name="numbersign" unicode="#" horiz-adv-x="1575" 
d="M702 864l-98 -276h283l96 276h-281zM760 1458h155l-161 -454h276l162 454h156l-162 -454h301l-49 -140h-301l-97 -276h320l-49 -139h-320l-162 -453h-155l162 453h-279l-162 -453h-153l159 453h-313l51 139h312l98 276h-336l51 140h334z" />
    <glyph glyph-name="dollar" unicode="$" horiz-adv-x="1147" 
d="M598 137q126 12 193 73t67 163q0 84 -56 140t-204 114v-490zM494 905v428q-101 -11 -156 -63.5t-55 -134.5q0 -83 50 -137.5t161 -92.5zM598 14v-295h-104v295q-201 12 -321 95.5t-120 207.5q0 76 40 120t108 44q56 0 95.5 -36.5t39.5 -92.5q0 -36 -22.5 -76.5
t-22.5 -50.5q0 -33 57.5 -59t144.5 -29l1 531q-228 99 -314 187t-86 212q0 152 106 252t294 123v200h104v-196q188 -12 300 -93t112 -204q0 -73 -37.5 -113.5t-104.5 -40.5q-60 0 -96.5 36t-36.5 95q0 34 21.5 75t21.5 52q0 26 -50 50.5t-130 33.5v-469q237 -83 347 -192
t110 -258q0 -170 -126 -282.5t-331 -121.5z" />
    <glyph glyph-name="percent" unicode="%" horiz-adv-x="1878" 
d="M1712 532q0 85 -38 136t-99 51q-56 0 -119 -59t-119 -164q-43 -82 -67.5 -169t-24.5 -151t34.5 -99.5t94.5 -35.5q122 0 230 157t108 334zM1782 524q0 -218 -136.5 -390.5t-308.5 -172.5q-122 0 -198 83t-76 218q0 204 146.5 370.5t320.5 166.5q123 0 187.5 -70.5
t64.5 -204.5zM737 1298q-43 25 -82 51.5t-73 55.5q-120 -57 -213 -228t-93 -319q0 -63 35.5 -99t96.5 -36q121 0 228 157.5t107 333.5q0 16 -1.5 36t-4.5 48zM1341 1522h97l-875 -1579h-121l772 1392q-59 -42 -124.5 -65t-124.5 -23q-38 0 -75.5 7t-78.5 22q0 -7 1 -20.5
t1 -20.5q0 -243 -134.5 -418.5t-311.5 -175.5q-124 0 -200.5 82.5t-76.5 216.5q0 202 146.5 369.5t316.5 167.5q72 0 125.5 -25.5t122.5 -95.5q46 -18 83.5 -26.5t71.5 -8.5q102 0 204.5 53t180.5 148z" />
    <glyph glyph-name="ampersand" unicode="&#x26;" horiz-adv-x="1931" 
d="M1079 133q-122 -86 -245.5 -129t-251.5 -43q-220 0 -356 110.5t-136 284.5q0 137 71 231t337 240l57 31q-72 139 -92.5 202.5t-20.5 119.5q0 144 96 237.5t246 93.5q129 0 211 -79t82 -201q0 -103 -73 -201.5t-211 -181.5q72 -118 162 -238t198 -241q116 131 186 255.5
t70 188.5q0 49 -49 71t-164 26v120h621v-123q-106 0 -149 -20t-75 -76q-17 -31 -51 -101q-140 -280 -287 -436q64 -60 115.5 -86t104.5 -26q94 0 155 75.5t101 241.5l118 -22q-27 -235 -138.5 -365.5t-283.5 -130.5q-80 0 -154.5 35.5t-193.5 136.5zM727 954
q101 68 153 137.5t52 137.5q0 67 -45.5 113.5t-110.5 46.5q-63 0 -105 -48t-42 -120q0 -56 24 -122t74 -145zM610 735q-131 -73 -196.5 -158t-65.5 -184q0 -130 79 -205t216 -75q93 0 180 30.5t166 92.5q-111 117 -205.5 241t-173.5 258z" />
    <glyph glyph-name="quotesingle" unicode="'" horiz-adv-x="352" 
d="M195 860h-35l-70 459q0 2 -1 8q-3 20 -3 29q0 50 23.5 78t66.5 28q42 0 66 -27t24 -75q0 -7 -0.5 -15t-3.5 -27z" />
    <glyph glyph-name="parenleft" unicode="(" horiz-adv-x="967" 
d="M858 1450q-180 -119 -266 -340t-86 -563q0 -316 86 -514.5t266 -296.5l-33 -53q-256 138 -389 363t-133 521q0 309 131.5 544.5t388.5 387.5z" />
    <glyph glyph-name="parenright" unicode=")" horiz-adv-x="967" 
d="M111 1450l34 49q257 -152 389 -387.5t132 -544.5q0 -297 -132.5 -521.5t-390.5 -362.5l-32 53q179 99 265.5 298t86.5 513q0 342 -86 563t-266 340z" />
    <glyph glyph-name="asterisk" unicode="*" 
d="M526 1059v-6q0 -85 41 -176.5t41 -118.5q0 -42 -27 -67t-71 -25q-45 0 -70.5 24.5t-25.5 67.5q0 28 40 118t40 171v12q-77 -46 -148.5 -142t-124.5 -96q-33 0 -62.5 35t-29.5 74q0 37 32 65t76 31q11 1 31 2q130 9 209 59q-91 52 -210 59q-14 0 -22 1q-50 4 -83 31.5
t-33 66.5q0 41 28 74t64 33q57 0 128.5 -99.5t148.5 -142.5v10q0 84 -42 176t-42 119q0 42 27 67t71 25q45 0 71.5 -25t26.5 -67q0 -29 -41 -118.5t-41 -170.5v-16q76 48 147.5 144t125.5 96q34 0 64 -34.5t30 -72.5q0 -37 -32 -65t-76 -31q-10 -1 -28 -2q-138 -10 -214 -62
q90 -50 203 -56q16 0 24 -1q58 -5 90.5 -31t32.5 -67t-29 -74t-65 -33q-56 0 -126 98.5t-149 139.5z" />
    <glyph glyph-name="plus" unicode="+" horiz-adv-x="1706" 
d="M782 1221h142v-541h528v-139h-528v-541h-142v541h-528v139h528v541z" />
    <glyph glyph-name="comma" unicode="," horiz-adv-x="573" 
d="M309 -35q-16 -3 -28 -4.5t-21 -1.5q-60 0 -96.5 36t-36.5 97q0 62 39 100.5t102 38.5q75 0 119.5 -51t44.5 -139q0 -139 -91.5 -259t-221.5 -147v84q87 37 132.5 95.5t57.5 150.5z" />
    <glyph glyph-name="hyphen" unicode="-" horiz-adv-x="778" 
d="M115 477v180h549v-180h-549z" />
    <glyph glyph-name="period" unicode="." horiz-adv-x="573" 
d="M147 100q0 57 41.5 98.5t98.5 41.5t97 -41t40 -99t-40 -98.5t-97 -40.5t-98.5 41.5t-41.5 97.5z" />
    <glyph glyph-name="slash" unicode="/" horiz-adv-x="573" 
d="M80 -190h-127l498 1697h127z" />
    <glyph glyph-name="zero" unicode="0" horiz-adv-x="1147" 
d="M1049 711q0 -370 -120.5 -560t-355.5 -190q-237 0 -355 192t-118 582q0 389 117.5 580.5t355.5 191.5q243 0 359.5 -194.5t116.5 -601.5zM573 1384q-121 0 -174 -137t-53 -459q0 -416 51 -560t176 -144q124 0 176 141t52 512q0 366 -52 506.5t-176 140.5z" />
    <glyph glyph-name="one" unicode="1" horiz-adv-x="1147" 
d="M690 295v-6q0 -101 39.5 -133.5t136.5 -32.5h78v-123h-737v123h82q102 0 144 31t42 141v768q0 105 -39 138.5t-137 33.5h-80v117q136 17 217 50t127 89h127v-1196z" />
    <glyph glyph-name="two" unicode="2" horiz-adv-x="1147" 
d="M86 0v199l397 391q146 143 213.5 264t67.5 240q0 137 -75 216t-206 79q-84 0 -148 -37t-81 -95q88 -28 126 -72t38 -116q0 -63 -41.5 -103t-108.5 -40q-81 0 -133.5 59.5t-52.5 155.5q0 159 127 262.5t328 103.5q209 0 341 -114t132 -297q0 -108 -56 -214t-172 -218
q-36 -36 -210.5 -188.5t-299.5 -276.5h416q81 0 119 23t47 77l27 174h125l-17 -473h-903z" />
    <glyph glyph-name="three" unicode="3" horiz-adv-x="1147" 
d="M367 877h32q157 0 237.5 68t80.5 200q0 121 -59 186.5t-166 65.5q-67 0 -126 -26t-59 -44q0 -4 41 -47t41 -96q0 -57 -40.5 -95t-102.5 -38q-66 0 -107 46t-41 120q0 122 117 206t297 84q192 0 320.5 -106t128.5 -264q0 -119 -79 -200.5t-239 -127.5q173 -40 267 -148
t94 -268q0 -192 -136.5 -312t-355.5 -120q-183 0 -305.5 91t-122.5 222q0 86 47 140.5t121 54.5q59 0 98 -38.5t39 -96.5q0 -69 -49 -117.5t-49 -50.5q0 -25 66.5 -52.5t150.5 -27.5q118 0 186 80.5t68 222.5q0 174 -90.5 266.5t-261.5 92.5q-8 0 -22 -1.5t-21 -1.5v132z
" />
    <glyph glyph-name="four" unicode="4" horiz-adv-x="1147" 
d="M655 561v678l-491 -678h491zM1087 123v-123h-665v123h70q88 0 124.5 33t36.5 139v113h-612v180l666 919h147v-946h233v-153h-233v-123q0 -96 36.5 -129t123.5 -33h73z" />
    <glyph glyph-name="five" unicode="5" horiz-adv-x="1147" 
d="M145 688l78 787h688v-181h-585l-39 -397q70 68 144 98.5t165 30.5q196 0 321 -141t125 -363q0 -253 -142 -404t-380 -151q-184 0 -306 88.5t-122 220.5q0 84 46.5 137.5t117.5 53.5q63 0 102 -38.5t39 -102.5q0 -65 -49 -111.5t-49 -50.5q0 -27 60.5 -54.5t140.5 -27.5
q140 0 219.5 111t79.5 307q0 188 -71.5 285.5t-209.5 97.5q-81 0 -151 -52.5t-109 -142.5h-113z" />
    <glyph glyph-name="six" unicode="6" horiz-adv-x="1147" 
d="M358 821q55 66 126 98.5t159 32.5q178 0 292 -136t114 -351q0 -225 -125 -364.5t-322 -139.5q-232 0 -366 182t-134 500q0 382 160 624t410 242q142 0 240 -80t98 -190q0 -81 -41 -128.5t-109 -47.5q-66 0 -104.5 35.5t-38.5 95.5q0 50 33.5 86.5t33.5 44.5q0 22 -42 46
t-93 24q-131 0 -211 -153t-80 -413v-8zM578 88q113 0 171 94.5t58 278.5q0 182 -60.5 276t-177.5 94q-115 0 -171 -86.5t-56 -265.5q0 -190 60.5 -290.5t175.5 -100.5z" />
    <glyph glyph-name="seven" unicode="7" horiz-adv-x="1147" 
d="M119 913l18 594h127q18 -18 36.5 -25t45.5 -7h703v-162q-139 -217 -212 -432.5t-73 -407.5q0 -64 8 -165.5t8 -137.5q0 -109 -35 -159t-112 -50q-78 0 -114 49.5t-36 157.5q0 183 103.5 472.5t294.5 635.5h-424q-109 0 -153 -47t-54 -164l-12 -152h-119z" />
    <glyph glyph-name="eight" unicode="8" horiz-adv-x="1147" 
d="M408 784q-139 53 -205 136t-66 204q0 177 118 280t320 103q200 0 317.5 -103.5t117.5 -279.5q0 -122 -65.5 -204.5t-203.5 -135.5q163 -68 241.5 -168t78.5 -239q0 -193 -131 -304.5t-357 -111.5q-225 0 -356 111.5t-131 304.5q0 138 79 238.5t243 168.5zM575 84
q117 0 178.5 79.5t61.5 229.5q0 151 -61.5 230t-178.5 79t-179 -79.5t-62 -229.5t62 -229.5t179 -79.5zM575 852q95 0 145 68.5t50 197.5q0 130 -50.5 199t-144.5 69q-95 0 -145.5 -69t-50.5 -199t50 -198t146 -68z" />
    <glyph glyph-name="nine" unicode="9" horiz-adv-x="1147" 
d="M569 1382q-114 0 -173.5 -95.5t-59.5 -276.5t62 -276t180 -95q116 0 172.5 86.5t56.5 265.5q0 189 -61.5 290t-176.5 101zM780 647q-55 -65 -126 -97t-158 -32q-178 0 -292 136.5t-114 351.5q0 224 124.5 362.5t322.5 138.5q232 0 366.5 -182t134.5 -500
q0 -381 -160 -622.5t-409 -241.5q-142 0 -240 79t-98 189q0 80 41.5 128.5t108.5 48.5q64 0 103.5 -36t39.5 -94q0 -48 -34 -85t-34 -46q0 -21 41.5 -45t91.5 -24q132 0 211.5 153t79.5 412v6z" />
    <glyph glyph-name="colon" unicode=":" horiz-adv-x="621" 
d="M172 981q0 57 40 97t97 40q58 0 99 -40t41 -97q0 -58 -41 -98.5t-99 -40.5q-56 0 -96.5 41t-40.5 98zM172 100q0 58 40.5 99t96.5 41q58 0 99 -41t41 -99q0 -57 -41 -98t-99 -41q-56 0 -96.5 41t-40.5 98z" />
    <glyph glyph-name="semicolon" unicode=";" horiz-adv-x="621" 
d="M356 -35q-16 -3 -28 -4.5t-21 -1.5q-60 0 -96.5 36t-36.5 97q0 62 39.5 100.5t101.5 38.5q75 0 119.5 -51t44.5 -139q0 -139 -91.5 -259t-221.5 -147v84q87 37 132.5 95.5t57.5 150.5zM178 981q0 57 41 97t98 40q58 0 98 -40t40 -97q0 -58 -40 -98.5t-98 -40.5
q-56 0 -97.5 41t-41.5 98z" />
    <glyph glyph-name="less" unicode="&#x3c;" horiz-adv-x="1706" 
d="M1442 1159v-153l-969 -396l969 -393v-154l-1178 484v129z" />
    <glyph glyph-name="equal" unicode="=" horiz-adv-x="1706" 
d="M254 481h1198v-139h-1198v139zM254 879h1198v-140h-1198v140z" />
    <glyph glyph-name="greater" unicode="&#x3e;" horiz-adv-x="1706" 
d="M264 1159l1178 -483v-129l-1178 -484v154l971 393l-971 396v153z" />
    <glyph glyph-name="question" unicode="?" horiz-adv-x="1147" 
d="M553 578v-199h-113v305q174 6 245 89.5t71 285.5q0 161 -57.5 247.5t-163.5 86.5q-85 0 -150.5 -49t-65.5 -91q0 -5 42 -47t42 -106q0 -50 -33.5 -81.5t-86.5 -31.5q-61 0 -97 43t-36 115q0 156 112 259t287 103q188 0 303 -122.5t115 -325.5q0 -213 -103 -332.5
t-311 -148.5zM354 100q0 57 41.5 98.5t98.5 41.5t97 -41t40 -99q0 -57 -40 -98t-97 -41t-98.5 41.5t-41.5 97.5z" />
    <glyph glyph-name="at" unicode="@" horiz-adv-x="2019" 
d="M1186 332q-62 -105 -138 -156t-169 -51q-129 0 -206 92t-77 246q0 109 49.5 216t140.5 195q68 65 146 99.5t155 34.5q90 0 146 -48.5t76 -142.5l51 174h158l-172 -612l-4 -12q-15 -56 -15 -86q0 -51 23.5 -79t66.5 -28q33 0 80.5 20t89.5 52q119 90 179.5 228.5
t60.5 318.5q0 133 -52.5 245t-156.5 201q-90 77 -214 118.5t-267 41.5q-180 0 -335.5 -61.5t-275.5 -180.5q-126 -124 -190 -287t-64 -358q0 -182 57 -313t179 -234q109 -92 254 -141t307 -49q170 0 327 51.5t300 155.5l33 -41q-147 -110 -312.5 -166t-345.5 -56
q-189 0 -345.5 45.5t-274.5 135.5q-151 113 -230.5 276.5t-79.5 360.5q0 203 86.5 380.5t251.5 313.5q134 111 294.5 167t342.5 56q346 0 555 -188.5t209 -499.5q0 -159 -58.5 -298t-166.5 -237q-59 -52 -126 -80t-134 -28q-96 0 -149 53t-60 156zM1104 961
q-54 0 -98.5 -30.5t-90.5 -99.5q-71 -107 -113 -233.5t-42 -228.5q0 -86 39.5 -138.5t101.5 -52.5q65 0 122.5 43.5t111.5 132.5q55 93 88.5 204t33.5 198q0 92 -42 148.5t-111 56.5z" />
    <glyph glyph-name="A" unicode="A" horiz-adv-x="1651" 
d="M535 668h499l-241 635zM18 0v141q6 0 15.5 -1t13.5 -1q67 0 107.5 35.5t97.5 171.5l469 1129h244l446 -1164l4 -10q62 -160 195 -160h20l6 -141h-655v141h88q61 0 91 20.5t30 61.5q0 18 -5 43t-14 45l-81 215h-611l-88 -219q-9 -22 -14.5 -47t-5.5 -43q0 -36 30 -56
t84 -20h99v-141h-566z" />
    <glyph glyph-name="B" unicode="B" horiz-adv-x="1673" 
d="M559 1161v-323h303q171 0 258.5 61.5t87.5 181.5q0 131 -92 193.5t-285 62.5q-189 0 -230.5 -33.5t-41.5 -142.5zM559 700v-368q0 -123 43 -157t223 -34q229 0 341 71t112 216t-109 208.5t-366 63.5h-244zM74 0v141h73q102 0 141.5 38.5t39.5 152.5v811
q0 113 -36.5 150.5t-152.5 37.5h-65v144h821q289 0 441.5 -95.5t152.5 -275.5q0 -126 -85 -209.5t-249 -120.5q203 -38 304.5 -132t101.5 -243q0 -118 -57 -202t-171 -134q-79 -34 -191 -48.5t-354 -14.5h-714z" />
    <glyph glyph-name="C" unicode="C" horiz-adv-x="1602" 
d="M1520 518q-90 -276 -256 -416.5t-406 -140.5q-323 0 -529 217.5t-206 556.5q0 329 203 550.5t499 221.5q158 0 299 -64.5t148 -64.5q34 0 56 28t30 81h127l18 -604h-123q-66 233 -196.5 358t-306.5 125q-206 0 -333.5 -174t-127.5 -457q0 -293 125.5 -463t341.5 -170
q171 0 294.5 115.5t211.5 357.5z" />
    <glyph glyph-name="D" unicode="D" horiz-adv-x="1794" 
d="M78 141h82q92 0 130 39.5t38 151.5v811q0 111 -34.5 149.5t-133.5 38.5h-82v144h729q188 0 311.5 -26t218.5 -83q164 -97 254 -262.5t90 -368.5q0 -208 -89 -374.5t-249 -258.5q-92 -53 -224 -77.5t-333 -24.5h-708v141zM561 1143v-811q0 -127 49.5 -163t200.5 -36
q289 0 430 148.5t141 453.5q0 306 -137.5 456t-417.5 150q-165 0 -215.5 -35t-50.5 -163z" />
    <glyph glyph-name="E" unicode="E" horiz-adv-x="1597" 
d="M559 332q0 -116 38.5 -153.5t150.5 -37.5h296q149 0 197 38t55 183l9 183h155v-545h-1386v141h82q95 0 133.5 40t38.5 151v811q0 111 -36 149.5t-136 38.5h-82v144h1362v-533h-148l-10 170q-9 147 -56.5 183t-193.5 36h-270q-120 0 -159.5 -36t-39.5 -152v-303h148
q104 0 145.5 29.5t52.5 135.5v109h131v-686h-131v102q-12 109 -54 137.5t-144 28.5h-148v-364z" />
    <glyph glyph-name="F" unicode="F" horiz-adv-x="1495" 
d="M559 332v-43q0 -79 43 -113.5t146 -34.5h104v-141h-778v141h82q95 0 133.5 40t38.5 151v811q0 111 -35.5 149.5t-136.5 38.5h-82v144h1345v-580h-149l-10 221q-7 144 -55 179.5t-195 35.5h-252q-121 0 -160 -36.5t-39 -151.5v-303h133q105 0 146 29.5t47 136.5l4 114h131
v-686h-131l-4 96q-6 107 -47 136.5t-146 29.5h-133v-364z" />
    <glyph glyph-name="G" unicode="G" horiz-adv-x="1886" 
d="M1407 178q-94 -104 -231.5 -160.5t-294.5 -56.5q-338 0 -548 213.5t-210 560.5q0 175 57.5 317t171.5 251q103 96 241 150t281 54q167 0 334.5 -70.5t169.5 -70.5q28 0 43.5 28.5t24.5 96.5h127l-2 -545h-119q-64 197 -207 306.5t-334 109.5q-236 0 -368.5 -165.5
t-132.5 -461.5q0 -294 132.5 -462.5t360.5 -168.5q212 0 340.5 104.5t128.5 278.5q0 99 -40.5 137t-157.5 38h-76v143h731v-143q-153 -6 -194.5 -44.5t-41.5 -154.5v-463h-114z" />
    <glyph glyph-name="H" unicode="H" horiz-adv-x="1831" 
d="M559 332q0 -112 37 -151.5t135 -39.5h82v-141h-739v141h82q95 0 133.5 39.5t38.5 151.5v811q0 111 -36.5 149.5t-135.5 38.5h-82v144h739v-144h-86q-94 0 -131 -38.5t-37 -149.5v-305h711v305q0 111 -37.5 149.5t-132.5 38.5h-84v144h741v-144h-84q-97 0 -133.5 -38
t-36.5 -150v-811q0 -114 37 -152.5t133 -38.5h84v-141h-741v141h84q94 0 132 39t38 152v364h-711v-364z" />
    <glyph glyph-name="I" unicode="I" horiz-adv-x="887" 
d="M74 1475h739v-144h-82q-98 0 -135 -38t-37 -150v-811q0 -112 37 -151.5t135 -39.5h82v-141h-739v141h82q98 0 135 39.5t37 161.5v801q0 111 -36.5 149.5t-135.5 38.5h-82v144z" />
    <glyph glyph-name="J" unicode="J" horiz-adv-x="1186" 
d="M655 1143q0 112 -35.5 150t-134.5 38h-79v144h737v-144h-86q-95 0 -131.5 -38.5t-36.5 -149.5v-651q0 -141 -13 -210.5t-42 -121.5q-52 -93 -155 -146t-233 -53q-164 0 -271 98t-107 248q0 96 51.5 154.5t132.5 58.5q66 0 107.5 -40t41.5 -103q0 -50 -31 -87.5
t-104 -74.5q10 -55 55.5 -85t120.5 -30q106 0 159.5 68.5t53.5 202.5v772z" />
    <glyph glyph-name="K" unicode="K" horiz-adv-x="1831" 
d="M1737 1475v-144q-77 0 -181.5 -47.5t-216.5 -134.5l-348 -275l498 -577q77 -89 140 -122.5t147 -33.5h26v-141h-803v141q10 0 26.5 -1t23.5 -1q91 0 138.5 21t47.5 61q0 17 -10.5 38t-30.5 42l-391 434l-244 -188v-215q0 -115 38 -153t153 -38h63v-141h-739v141h82
q95 0 133.5 40t38.5 151v811q0 110 -35.5 149t-136.5 39h-82v144h739v-144h-88q-93 0 -129.5 -38.5t-36.5 -149.5v-414l535 424q47 38 74.5 72t27.5 55q0 29 -29.5 40t-113.5 11h-54v144h738z" />
    <glyph glyph-name="L" unicode="L" horiz-adv-x="1489" 
d="M559 332q0 -116 38.5 -153.5t150.5 -37.5h241q175 0 223.5 40t59.5 190l14 215h152v-586h-1364v141h82q95 0 133.5 40t38.5 151v811q0 113 -35.5 150.5t-153.5 37.5h-65v144h757v-144h-92q-109 0 -144.5 -38t-35.5 -150v-811z" />
    <glyph glyph-name="M" unicode="M" horiz-adv-x="2105" 
d="M55 0v143h88q96 0 133 38.5t37 148.5v813q0 115 -35 151.5t-135 36.5h-88v144h580l420 -1158l397 1158h569v-144h-94q-95 0 -128.5 -36.5t-33.5 -151.5v-811q0 -116 33.5 -152.5t132.5 -36.5h90v-143h-708v143q143 0 185 37t42 152v1022l-467 -1354h-135l-483 1354v-1024
q0 -115 39.5 -151t162.5 -36h11h4v-143h-617z" />
    <glyph glyph-name="N" unicode="N" horiz-adv-x="1749" 
d="M471 1219v-895q0 -116 31.5 -148.5t144.5 -32.5h49v-143h-639v143h90q98 0 132 34.5t34 154.5v770q0 149 -31 189t-137 40h-88v144h498l735 -1108v776q0 123 -31 155.5t-145 32.5h-72v144h662v-144h-94q-95 0 -128.5 -35t-33.5 -153v-1143h-166z" />
    <glyph glyph-name="O" unicode="O" horiz-adv-x="1835" 
d="M123 741q0 338 222.5 552t572.5 214q351 0 572.5 -214.5t221.5 -557.5t-221.5 -558.5t-572.5 -215.5q-353 0 -574 216.5t-221 563.5zM920 1366q-234 0 -369 -168.5t-135 -462.5t134.5 -462.5t369.5 -168.5q234 0 365.5 166t131.5 465t-131.5 465t-365.5 166z" />
    <glyph glyph-name="P" unicode="P" horiz-adv-x="1507" 
d="M559 1141v-361h307q172 0 261.5 69.5t89.5 203.5q0 145 -91 212.5t-288 67.5q-200 0 -239.5 -37t-39.5 -155zM918 1475q277 0 423 -110t146 -318q0 -130 -66 -224.5t-188 -140.5q-59 -22 -155 -31.5t-277 -9.5h-242v-352q0 -76 44 -112t136 -36h74v-141h-739v141h73
q102 0 141.5 38.5t39.5 152.5v811q0 112 -35 150t-154 38h-65v144h844z" />
    <glyph glyph-name="Q" unicode="Q" horiz-adv-x="1835" 
d="M1085 -25q-75 -8 -116.5 -11t-71.5 -3q-334 0 -554 218.5t-220 555.5q0 343 221.5 557.5t573.5 214.5q351 0 572.5 -214.5t221.5 -557.5q0 -235 -105 -410t-302 -268q20 -114 60 -169.5t101 -55.5q60 0 95.5 46.5t35.5 123.5v12h115v-30q0 -169 -76 -257.5t-221 -88.5
q-143 0 -219 77.5t-111 259.5zM1247 213q86 85 128 215.5t42 306.5q0 299 -131.5 465t-365.5 166q-235 0 -369.5 -168t-134.5 -463q0 -169 40.5 -293t125.5 -215q-10 23 -14.5 44.5t-4.5 43.5q0 123 80.5 198t214.5 75q141 0 234.5 -90t154.5 -285zM1059 117
q-12 145 -79.5 237t-156.5 92q-74 0 -119 -46t-45 -121q0 -88 67 -138.5t183 -50.5q31 0 66.5 6t83.5 21z" />
    <glyph glyph-name="R" unicode="R" horiz-adv-x="1731" 
d="M559 332q0 -114 39.5 -152.5t140.5 -38.5h74v-141h-739v141h73q102 0 141.5 38.5t39.5 152.5v811q0 113 -35.5 150.5t-153.5 37.5h-65v144h821q303 0 458.5 -103.5t155.5 -306.5q0 -150 -115 -244.5t-337 -128.5q113 -43 167.5 -103.5t78.5 -169.5q4 -20 13 -61
q48 -223 132 -223q59 0 91 68t40 209l115 -1q-2 -231 -78 -340.5t-236 -109.5q-157 0 -229 86t-92 346q-14 183 -79.5 240t-229.5 57h-191v-358zM559 1155v-328h315q199 0 284 56.5t85 183.5q0 139 -95.5 202.5t-305.5 63.5q-193 0 -238 -34t-45 -144z" />
    <glyph glyph-name="S" unicode="S" horiz-adv-x="1475" 
d="M256 0h-123v647h141q55 -252 214 -397.5t380 -145.5q136 0 216.5 72.5t80.5 192.5q0 117 -80.5 181t-365.5 124q-319 66 -436 161t-117 267q0 187 133.5 296t364.5 109q123 0 262 -55t155 -55q26 0 44 23.5t20 61.5l133 1v-527h-133q-52 206 -169 309t-298 103
q-136 0 -217.5 -59.5t-81.5 -157.5q0 -166 397 -251q41 -9 61 -13q311 -69 426 -172.5t115 -294.5q0 -202 -140.5 -330.5t-360.5 -128.5q-181 0 -356.5 88t-182.5 88q-35 0 -54.5 -32t-27.5 -105z" />
    <glyph glyph-name="T" unicode="T" horiz-adv-x="1602" 
d="M68 1475h1464l12 -533h-143l-12 152q-11 130 -77 184.5t-212 54.5q-106 0 -144 -37.5t-38 -156.5l-3 -807q0 -116 38.5 -153.5t150.5 -37.5h104v-141h-817v141h121q96 0 134 39.5t38 151.5v811q0 113 -39 151.5t-145 38.5q-146 0 -212 -54.5t-77 -184.5l-12 -152h-144z
" />
    <glyph glyph-name="U" unicode="U" horiz-adv-x="1726" 
d="M49 1331v144h739v-144h-86q-95 0 -131 -39.5t-36 -156.5v-525q0 -251 88 -360t284 -109q191 0 279 112t88 357v525q0 123 -37 159.5t-131 36.5h-84v144h668v-144h-84q-96 0 -132 -35t-36 -170v-516q0 -337 -144 -494t-448 -157q-136 0 -244 39.5t-180 116.5
q-64 68 -91.5 153.5t-27.5 249.5v76v541q0 118 -34.5 157t-137.5 39h-82z" />
    <glyph glyph-name="V" unicode="V" horiz-adv-x="1497" 
d="M1110 1180q8 23 12 45.5t4 36.5q0 36 -27 52.5t-85 16.5h-82v144h559v-143q-4 0 -10 0.5t-17 0.5q-64 0 -112 -37t-70 -104l-414 -1231h-215l-426 1202q-35 98 -79 134t-125 36q-6 0 -19 -1t-20 -1v144h686v-144h-99q-52 0 -80 -23.5t-28 -68.5q0 -24 4.5 -51t9.5 -39
l320 -924z" />
    <glyph glyph-name="W" unicode="W" horiz-adv-x="2058" 
d="M1673 1198q2 9 7 25q10 37 10 49q0 32 -24.5 45.5t-86.5 13.5h-53v144h491v-144h-6q-79 0 -130 -48.5t-83 -154.5l-342 -1167h-125l-303 1014l-287 -1014h-139l-371 1202q-26 84 -70.5 126t-107.5 42h-4v144h553v-143q-73 -3 -103 -24t-30 -69q0 -21 3.5 -46t8.5 -44
l228 -805l221 781q3 9 4.5 23.5t1.5 47.5q0 69 -38.5 103t-115.5 34q-15 0 -23.5 -0.5t-14.5 -1.5l-1 144h631v-144q-102 0 -142 -23.5t-40 -80.5q0 -32 20 -104q3 -11 5 -18l217 -763z" />
    <glyph glyph-name="X" unicode="X" horiz-adv-x="1704" 
d="M371 1167q-72 81 -148.5 123.5t-150.5 42.5q-16 0 -23.5 -0.5t-13.5 -0.5v143h749v-144h-77q-58 0 -83.5 -11.5t-25.5 -37.5t17 -56t63 -79l201 -223l188 213q32 36 49 64.5t17 45.5q0 36 -35.5 60t-89.5 24h-62v144h709v-144q-119 -8 -199.5 -38.5t-132.5 -86.5
l-358 -387l403 -479q95 -112 167.5 -153.5t170.5 -45.5v-141h-795v141h136q64 0 92 12.5t28 39.5q0 19 -9 39.5t-28 43.5l-307 373l-274 -317q-33 -38 -46.5 -62t-13.5 -43q0 -39 32 -62.5t87 -23.5h121v-141h-719v141h19q89 0 172 50.5t202 185.5l332 375z" />
    <glyph glyph-name="Y" unicode="Y" horiz-adv-x="1575" 
d="M1135 1159q9 14 15.5 35t6.5 37q0 45 -32 72.5t-85 27.5h-90v144h662v-144q-107 -10 -184 -58.5t-140 -144.5l-373 -577v-223q0 -112 42.5 -149.5t154.5 -37.5h121v-141h-866v141h120q112 0 154.5 38t42.5 153v231l-455 654q-40 58 -91 83t-152 31v144h737v-144h-92
q-59 0 -91 -21.5t-32 -62.5q0 -19 8.5 -39.5t32.5 -56.5l303 -440z" />
    <glyph glyph-name="Z" unicode="Z" horiz-adv-x="1485" 
d="M600 1331q-188 0 -245.5 -44.5t-69.5 -192.5l-13 -146h-131l19 527h1175v-144l-981 -1190h510q193 0 264.5 53.5t79.5 186.5l15 231h141v-612h-1249v186l929 1145h-444z" />
    <glyph glyph-name="bracketleft" unicode="[" horiz-adv-x="967" 
d="M487 -25q0 -115 23.5 -140t103.5 -25h154v-84h-453v1749h453v-86h-158q-77 0 -100 -26t-23 -140v-1248z" />
    <glyph glyph-name="backslash" unicode="\" horiz-adv-x="573" 
d="M621 -190h-127l-498 1697h127z" />
    <glyph glyph-name="bracketright" unicode="]" horiz-adv-x="967" 
d="M479 1223q0 115 -23 140.5t-104 25.5h-153v86h452v-1749h-452v84h153q81 0 104 25t23 140v1248z" />
    <glyph glyph-name="asciicircum" unicode="^" horiz-adv-x="2048" 
d="M926 1462h194l512 -565h-98l-512 420l-514 -420h-96z" />
    <glyph glyph-name="underscore" unicode="_" 
d="M0 -340h1024v-143h-1024v143z" />
    <glyph glyph-name="grave" unicode="`" 
d="M688 1264h-74l-301 182q-48 30 -66 51.5t-18 48.5q0 32 22.5 55t53.5 23q24 0 52 -16t55 -45z" />
    <glyph glyph-name="a" unicode="a" horiz-adv-x="1223" 
d="M813 569q-222 -26 -348.5 -107.5t-126.5 -195.5q0 -70 41 -109.5t115 -39.5q152 0 236.5 100.5t84.5 282.5q0 28 -0.5 42.5t-1.5 26.5zM829 164q-70 -95 -177 -147t-232 -52q-147 0 -232.5 70.5t-85.5 191.5q0 173 179 290t532 175v94q0 123 -68.5 186.5t-199.5 63.5
q-82 0 -147 -28t-91 -74q11 -12 34 -30q50 -39 50 -93q0 -55 -35 -85t-100 -30q-61 0 -95 36.5t-34 103.5q0 144 121.5 229.5t333.5 85.5q89 0 169 -21.5t138 -60.5q68 -45 95.5 -108.5t27.5 -215.5v-552q0 -52 14.5 -75.5t46.5 -23.5q26 0 42.5 18t23.5 52h84v-4
q0 -88 -54 -140.5t-143 -52.5q-86 0 -136 50t-61 147z" />
    <glyph glyph-name="b" unicode="b" horiz-adv-x="1382" 
d="M748 1014q-144 0 -227 -119t-83 -326q0 -211 82 -328.5t228 -117.5q145 0 222 114.5t77 331.5q0 216 -77.5 330.5t-221.5 114.5zM225 1194q0 124 -33.5 160t-138.5 47v110q91 0 183 6.5t188 18.5v-580q79 101 168.5 148t202.5 47q218 0 352.5 -162.5t134.5 -429.5
q0 -266 -129.5 -430t-337.5 -164q-123 0 -222.5 59.5t-176.5 180.5l-99 -219h-100q1 13 2 37q6 144 6 202v969z" />
    <glyph glyph-name="c" unicode="c" horiz-adv-x="1143" 
d="M1077 326q-58 -179 -172.5 -269t-283.5 -90q-232 0 -376.5 164t-144.5 428q0 267 147 430.5t384 163.5q167 0 278 -91t111 -220q0 -79 -43.5 -128.5t-112.5 -49.5q-67 0 -109 40t-42 105q0 54 51 113q18 21 26 32q-15 39 -54 59.5t-97 20.5q-144 0 -223.5 -124
t-79.5 -351q0 -233 76 -353t223 -120q117 0 204 71.5t134 207.5z" />
    <glyph glyph-name="d" unicode="d" horiz-adv-x="1382" 
d="M967 205q-77 -120 -177 -180t-225 -60q-207 0 -336 163.5t-129 430.5t134.5 429.5t353.5 162.5q112 0 200.5 -46.5t167.5 -148.5v238q0 130 -39.5 166.5t-164.5 40.5v110q99 7 201 14.5t204 16.5v-1241q0 -97 32 -131.5t130 -48.5v-119h-59q-71 0 -143 -5.5t-150 -16.5
v225zM635 1014q-145 0 -222 -114.5t-77 -330.5q0 -217 76.5 -331.5t222.5 -114.5t227.5 117.5t81.5 328.5q0 207 -82.5 326t-226.5 119z" />
    <glyph glyph-name="e" unicode="e" horiz-adv-x="1161" 
d="M1028 209q-72 -122 -170 -182t-223 -60q-242 0 -388.5 162t-146.5 430q0 266 142.5 429t373.5 163q202 0 326.5 -157t124.5 -416v-17h-731v-24q0 -216 78 -333.5t221 -117.5q98 0 167.5 47t129.5 154zM342 680h489q-3 169 -62 256.5t-169 87.5q-116 0 -182.5 -88.5
t-75.5 -255.5z" />
    <glyph glyph-name="f" unicode="f" horiz-adv-x="692" 
d="M422 317q0 -123 39 -161t170 -44v-112h-576v113q103 12 135.5 44.5t32.5 159.5v678h-168v123h168q2 220 89 324t270 104q127 0 198.5 -49.5t71.5 -138.5q0 -55 -32.5 -87t-88.5 -32q-48 0 -80.5 27t-32.5 65q0 23 7.5 40.5t23.5 35.5q-8 20 -27 30.5t-49 10.5
q-77 0 -114 -64.5t-37 -199.5v-66h252v-123h-252v-678z" />
    <glyph glyph-name="g" unicode="g" horiz-adv-x="1237" 
d="M563 506q109 0 163 67.5t54 202.5t-54.5 204t-162.5 69q-106 0 -159.5 -68.5t-53.5 -204.5q0 -137 52.5 -203.5t160.5 -66.5zM368 59q-46 -40 -69 -78t-23 -75q0 -85 83.5 -131.5t236.5 -46.5q190 0 293.5 52.5t103.5 147.5q0 61 -52 92t-155 31h-133q-52 0 -112.5 1.5
t-172.5 6.5zM287 88q-79 23 -120.5 72.5t-41.5 120.5q0 64 38 121.5t107 97.5q-74 57 -109.5 125.5t-35.5 154.5q0 168 120.5 272.5t313.5 104.5q113 0 197 -30.5t151 -96.5q86 86 124.5 107.5t80.5 21.5q63 0 98 -43.5t35 -122.5q0 -54 -24.5 -82t-71.5 -28q-34 0 -55 21
t-21 54q0 12 5 34.5t5 33.5q0 15 -4.5 22t-13.5 7q-27 0 -49.5 -18t-57.5 -68q25 -48 36.5 -92.5t11.5 -92.5q0 -173 -117.5 -275.5t-317.5 -102.5q-62 0 -115 9t-96 27q-49 -29 -72.5 -56.5t-23.5 -55.5q0 -49 80.5 -71t273.5 -23q22 -1 63 -1q197 -2 259 -18
q96 -23 147.5 -88.5t51.5 -163.5q0 -163 -149.5 -258.5t-407.5 -95.5q-221 0 -346 69t-125 189q0 60 36 107t140 112z" />
    <glyph glyph-name="h" unicode="h" horiz-adv-x="1360" 
d="M424 317q0 -124 35 -160t149 -44v-113h-555v113q107 11 139.5 47t32.5 157v869q0 121 -32.5 157t-139.5 48v120q10 0 31.5 -1t32.5 -1q72 0 146.5 6t152.5 17v-655q74 126 174 191t221 65q177 0 260.5 -106.5t83.5 -332.5v-377q0 -121 33 -157t139 -47v-113h-557v113
q115 8 150.5 44.5t35.5 159.5v365q0 168 -47 232.5t-157 64.5q-151 0 -239.5 -129.5t-88.5 -353.5v-179z" />
    <glyph glyph-name="i" unicode="i" horiz-adv-x="631" 
d="M166 1411q0 57 38 96t95 39t95 -39t38 -96q0 -56 -39 -95.5t-94 -39.5t-94 39.5t-39 95.5zM424 317q0 -122 34 -158t144 -46v-113h-567v112q118 8 154 43.5t36 161.5v469q0 127 -36.5 162.5t-153.5 43.5v122q15 0 45.5 -1t44.5 -1q79 0 152.5 5t146.5 16v-816z" />
    <glyph glyph-name="j" unicode="j" horiz-adv-x="639" 
d="M174 1411q0 57 38.5 96t94.5 39q57 0 96 -39t39 -96q0 -55 -40 -95t-95 -40q-54 0 -93.5 39.5t-39.5 95.5zM436 37v-27q0 -99 -9 -149t-30 -90q-41 -76 -122.5 -118t-188.5 -42q-113 0 -180.5 47.5t-67.5 126.5q0 57 35.5 93t91.5 36q50 0 78.5 -30t28.5 -83
q0 -20 -15 -53q-7 -16 -9 -25q16 -8 26 -11t20 -3q71 0 107.5 56.5t36.5 166.5v854q0 126 -37.5 162t-155.5 44v122q15 0 46 -1t46 -1q79 0 153 5t146 16v-1096z" />
    <glyph glyph-name="k" unicode="k" horiz-adv-x="1290" 
d="M424 317q0 -120 31.5 -155.5t134.5 -48.5v-113h-557v112q119 8 155.5 43.5t36.5 161.5v869q0 126 -37 162t-155 43v120q13 0 38.5 -1t39.5 -1q75 0 152.5 5.5t160.5 17.5v-932l317 244q37 28 52.5 49t15.5 41q0 34 -40 53t-116 19h-12v112h594v-112q-131 -15 -339 -186
l-33 -27l-169 -136l318 -366q92 -108 149.5 -142.5t128.5 -36.5v-112h-571v112l10 2q123 19 123 64q0 14 -12 35t-33 43l-260 289l-123 -99v-129z" />
    <glyph glyph-name="l" unicode="l" horiz-adv-x="631" 
d="M424 317q0 -123 35.5 -159.5t150.5 -44.5v-113h-577v112q119 8 155.5 43.5t36.5 161.5v869q0 126 -37 162t-155 43v120q13 0 38.5 -1t39.5 -1q75 0 152.5 5.5t160.5 17.5v-1215z" />
    <glyph glyph-name="m" unicode="m" horiz-adv-x="2038" 
d="M424 317q0 -123 35.5 -159.5t150.5 -44.5v-113h-557v113q107 11 139.5 47t32.5 157v469q0 122 -32.5 158t-139.5 47v123q13 0 37.5 -1t36.5 -1q66 0 137.5 5t151.5 16v-256q74 124 173 190t212 66q118 0 203.5 -69t115.5 -187q73 123 172 189.5t211 66.5q78 0 147.5 -34
t112.5 -93q37 -50 52.5 -111.5t15.5 -200.5v-377q0 -120 33.5 -156.5t140.5 -47.5v-113h-557v113q114 8 149 44t35 160v365q0 163 -44 229t-144 66q-143 0 -229.5 -130t-86.5 -351v-179q0 -121 33 -157t139 -47v-113h-557v113q116 8 151.5 44.5t35.5 159.5v365
q0 163 -44.5 229t-146.5 66q-142 0 -228.5 -130.5t-86.5 -350.5v-179z" />
    <glyph glyph-name="n" unicode="n" horiz-adv-x="1360" 
d="M424 317q0 -123 35.5 -159.5t150.5 -44.5v-113h-557v113q107 11 139.5 47t32.5 157v469q0 122 -32.5 158t-139.5 47v123q13 0 37.5 -1t36.5 -1q66 0 137.5 5t151.5 16v-256q74 126 174 191t221 65q156 0 250 -97t94 -256v-463q0 -121 33 -157t139 -47v-113h-557v113
q115 8 150.5 44.5t35.5 159.5v365q0 168 -47 232.5t-157 64.5q-151 0 -239.5 -129.5t-88.5 -353.5v-179z" />
    <glyph glyph-name="o" unicode="o" horiz-adv-x="1270" 
d="M635 86q152 0 225.5 116.5t73.5 356.5q0 241 -74 358t-225 117q-152 0 -225.5 -117t-73.5 -358q0 -240 73.5 -356.5t225.5 -116.5zM635 -33q-239 0 -387 163t-148 429q0 268 147 430t388 162t388.5 -162t147.5 -430q0 -266 -148 -429t-388 -163z" />
    <glyph glyph-name="p" unicode="p" horiz-adv-x="1382" 
d="M426 164v-225q0 -126 36 -162.5t150 -44.5v-111h-559v111q107 11 140.5 48t33.5 159v847q0 123 -33.5 158t-140.5 47v123q13 0 37.5 -1t36.5 -1q66 0 137.5 5t151.5 16v-220q77 120 177 180t224 60q208 0 337.5 -163.5t129.5 -430.5q0 -266 -135 -429t-354 -163
q-112 0 -200.5 47.5t-168.5 149.5zM748 104q144 0 221.5 115.5t77.5 331.5q0 217 -76.5 330.5t-222.5 113.5t-227 -116t-81 -328q0 -208 82.5 -327.5t225.5 -119.5z" />
    <glyph glyph-name="q" unicode="q" horiz-adv-x="1341" 
d="M772 -379v110q113 8 148.5 44t35.5 164v225q-80 -102 -168.5 -149.5t-199.5 -47.5q-219 0 -353.5 162.5t-134.5 429.5t129 430.5t336 163.5q125 0 225 -60t177 -180l98 220l98 -1q-3 -70 -4.5 -128.5t-1.5 -108.5v-956q0 -124 33.5 -160t138.5 -47v-111h-557zM635 104
q143 0 226 119.5t83 327.5q0 211 -81.5 327.5t-227.5 116.5t-222.5 -113.5t-76.5 -330.5q0 -216 77.5 -331.5t221.5 -115.5z" />
    <glyph glyph-name="r" unicode="r" horiz-adv-x="915" 
d="M53 0v113q107 11 139.5 47t32.5 157v469q0 122 -32.5 158t-139.5 47v123q13 0 37.5 -1t36.5 -1q66 0 137.5 5t151.5 16v-256q84 146 152 203t151 57t135.5 -53t52.5 -136q0 -71 -36.5 -112t-100.5 -41q-56 0 -89.5 32t-33.5 84q0 29 9.5 51.5t24.5 35.5q-5 4 -13 7t-17 3
q-76 0 -151.5 -155.5t-75.5 -354.5v-181q0 -129 40 -165t171 -40v-112h-582z" />
    <glyph glyph-name="s" unicode="s" horiz-adv-x="1042" 
d="M197 -33h-95v475h111q42 -164 145.5 -262t229.5 -98q84 0 137 45.5t53 116.5q0 66 -50 116.5t-183 110.5q-263 117 -337.5 194.5t-74.5 190.5q0 130 94 213.5t240 83.5q87 0 177.5 -43t94.5 -43q22 0 36.5 22.5t19.5 61.5h100v-373h-109q-48 125 -127.5 190.5
t-181.5 65.5q-72 0 -116 -37t-44 -96q0 -93 219 -191q43 -19 66 -30q215 -101 291 -187t76 -208q0 -138 -103 -229t-260 -91q-130 0 -281 82q-42 23 -53 23q-26 0 -43.5 -23.5t-31.5 -79.5z" />
    <glyph glyph-name="t" unicode="t" horiz-adv-x="930" 
d="M414 342q0 -123 32.5 -181.5t102.5 -58.5q91 0 138.5 98.5t47.5 286.5v23h109v-45q0 -251 -86.5 -374.5t-261.5 -123.5q-146 0 -214.5 91.5t-68.5 289.5v647h-180v123q135 8 198 101.5t84 326.5h99v-428h338v-123h-338v-653z" />
    <glyph glyph-name="u" unicode="u" horiz-adv-x="1360" 
d="M936 801q0 124 -36 161t-150 46v110q87 0 182 5t203 16v-811q0 -123 33.5 -159.5t137.5 -47.5l1 -121q-11 0 -32.5 1t-31.5 1q-73 0 -146.5 -5.5t-152.5 -16.5v243q-73 -126 -173.5 -191t-221.5 -65q-176 0 -260 106.5t-84 332.5v395q0 122 -33.5 158.5t-138.5 48.5v110
q86 0 178.5 5t194.5 16v-736q0 -154 47 -218t155 -64q151 0 239.5 129.5t88.5 353.5v197z" />
    <glyph glyph-name="v" unicode="v" horiz-adv-x="1161" 
d="M641 -33h-111l-325 842q-42 110 -81 148t-108 51v110h510v-110q-82 -10 -113.5 -30t-31.5 -60q0 -11 2 -22t6 -24l217 -632l236 629q4 13 8 34.5t4 36.5q0 27 -28.5 42t-100.5 26v110h418v-110q-58 -6 -97 -42t-67 -110z" />
    <glyph glyph-name="w" unicode="w" horiz-adv-x="1706" 
d="M1389 831q10 32 16 61.5t6 47.5q0 28 -34 44.5t-105 23.5v110h416v-110q-60 -13 -96.5 -55t-73.5 -148l-297 -838h-117l-246 654l-223 -654h-121l-307 842q-36 98 -76 143t-98 56v110h454v-110l-4 -2q-108 -32 -108 -88q0 -17 4.5 -40t11.5 -44l215 -605l187 566
q-45 132 -84.5 172.5t-110.5 40.5h-10v110h524v-110q-98 -11 -130 -29.5t-32 -56.5q0 -17 21 -79l4 -12l215 -608z" />
    <glyph glyph-name="x" unicode="x" horiz-adv-x="1241" 
d="M277 839l-6 7q-117 146 -240 160v112h528v-112q-51 -3 -82 -16t-31 -32q0 -13 17.5 -41t48.5 -67l131 -162l135 148q46 51 63 76.5t17 41.5q0 23 -35.5 36.5t-97.5 15.5v112h475v-112h-6q-47 0 -85 -20t-85 -71l-301 -319l266 -324q72 -86 123.5 -119.5t114.5 -39.5v-113
h-541v112q81 6 107 17.5t26 36.5q0 7 -3 13.5t-13 19.5l-209 260l-160 -174q-47 -52 -60.5 -74.5t-13.5 -42.5q0 -23 29.5 -37t87.5 -19v-112h-463l1 113q52 5 95 28t87 70l315 342z" />
    <glyph glyph-name="y" unicode="y" horiz-adv-x="1147" 
d="M635 8q-89 -221 -176.5 -309t-210.5 -88q-109 0 -179.5 57t-70.5 146q0 65 39 107t100 42q53 0 87 -31t34 -79q0 -34 -20.5 -62t-20.5 -31q0 -7 16.5 -14.5t34.5 -7.5q77 0 136 74t108 231l-309 766q-50 125 -92.5 159t-118.5 40v110h532v-110q-87 -12 -115 -31t-28 -62
q0 -16 4.5 -36t13.5 -45l215 -535l226 569q6 15 9 30t3 30q0 36 -30 53.5t-111 26.5v110h409v-110q-51 -14 -84 -47.5t-59 -100.5z" />
    <glyph glyph-name="z" unicode="z" horiz-adv-x="1100" 
d="M84 0v147l670 852h-297q-144 0 -180 -31t-44 -139l-8 -143h-112v432h880v-119l-688 -880h340q138 0 174.5 44.5t48.5 190.5l13 133h112v-487h-909z" />
    <glyph glyph-name="braceleft" unicode="{" 
d="M848 1516v-53q-136 -2 -186 -55t-50 -210v-141q0 -227 -59 -308.5t-217 -113.5q159 -32 217.5 -113.5t58.5 -308.5v-141q0 -157 49.5 -209t186.5 -54v-53h-10q-219 0 -301 74t-82 272v207q0 161 -59 221.5t-218 73.5v64q161 13 219 73.5t58 221.5v206q0 199 82 273
t301 74h10z" />
    <glyph glyph-name="bar" unicode="|" 
d="M438 1565h150v-2048h-150v2048z" />
    <glyph glyph-name="braceright" unicode="}" 
d="M176 1516h10q220 0 302.5 -74t82.5 -273v-206q0 -161 58 -221.5t219 -73.5v-64q-161 -13 -219 -73.5t-58 -221.5v-207q0 -198 -82.5 -272t-302.5 -74h-10v53q137 2 186.5 54.5t49.5 208.5v141q0 227 58.5 308.5t217.5 113.5q-158 32 -217 113.5t-59 308.5v141
q0 157 -50 210t-186 55v53z" />
    <glyph glyph-name="asciitilde" unicode="~" horiz-adv-x="1706" 
d="M1530 770v-156q-104 -72 -199 -106.5t-190 -34.5q-93 0 -256 58q-22 8 -34 12l-15 5q-176 60 -273 60q-84 0 -175 -37t-210 -120v155q106 72 202 108t185 36q62 0 127.5 -13.5t163.5 -48.5q16 -5 47 -17q159 -57 240 -57q88 0 179.5 37t207.5 119z" />
    <glyph glyph-name="Adieresis" unicode="&#xc4;" horiz-adv-x="1651" 
d="M535 668h499l-241 635zM18 0v141q6 0 15.5 -1t13.5 -1q67 0 107.5 35.5t97.5 171.5l469 1129h244l446 -1164l4 -10q62 -160 195 -160h20l6 -141h-655v141h88q61 0 91 20.5t30 61.5q0 18 -5 43t-14 45l-81 215h-611l-88 -219q-9 -22 -14.5 -47t-5.5 -43q0 -36 30 -56
t84 -20h99v-141h-566zM895 1783q0 45 33 78t79 33q47 0 80 -32.5t33 -78.5q0 -48 -32.5 -81t-80.5 -33q-47 0 -79.5 33t-32.5 81zM530 1783q0 45 34.5 78t80.5 33t78 -32t32 -79q0 -49 -31.5 -81.5t-78.5 -32.5q-48 0 -81.5 33t-33.5 81z" />
    <glyph glyph-name="Aring" unicode="&#xc5;" horiz-adv-x="1651" 
d="M696 1733q0 -57 40.5 -97.5t97.5 -40.5q56 0 96.5 40.5t40.5 97.5q0 56 -40.5 96.5t-96.5 40.5q-57 0 -97.5 -40.5t-40.5 -96.5zM594 1733q0 100 69.5 169.5t170.5 69.5t170 -69t69 -170q0 -100 -70 -170t-169 -70q-101 0 -170.5 69.5t-69.5 170.5zM535 668h499l-243 635
zM18 0l1 135q85 3 129 36t102 175l459 1098h264l438 -1133l4 -11q62 -159 189 -159h26l4 -141h-655v141h90q61 0 91 20.5t30 61.5q0 18 -5 43t-14 45l-81 215h-611l-88 -219q-9 -22 -14.5 -47t-5.5 -43q0 -36 30 -56t84 -20h101v-141h-568z" />
    <glyph glyph-name="Ccedilla" unicode="&#xc7;" horiz-adv-x="1602" 
d="M1520 518q-90 -276 -256 -416.5t-406 -140.5q-323 0 -529 217.5t-206 556.5q0 329 203 550.5t499 221.5q158 0 299 -64.5t148 -64.5q34 0 56 28t30 81h127l18 -604h-123q-66 233 -196.5 358t-306.5 125q-206 0 -333.5 -174t-127.5 -457q0 -293 125.5 -463t341.5 -170
q171 0 294.5 115.5t211.5 357.5zM612 -379l39 90q59 -37 119.5 -57.5t112.5 -20.5q56 0 83 22t27 69q0 43 -27.5 64.5t-82.5 21.5q-4 0 -16.5 -1.5t-43.5 -4.5v196h66v-115q16 2 31.5 3t37.5 1q81 0 130 -45.5t49 -119.5q0 -84 -59.5 -131.5t-166.5 -47.5q-58 0 -128.5 18
t-170.5 58z" />
    <glyph glyph-name="Eacute" unicode="&#xc9;" horiz-adv-x="1597" 
d="M559 332q0 -116 38.5 -153.5t150.5 -37.5h296q149 0 197 38t55 183l9 183h155v-545h-1386v141h82q95 0 133.5 40t38.5 151v811q0 111 -36 149.5t-136 38.5h-82v144h1362v-533h-148l-10 170q-9 147 -56.5 183t-193.5 36h-270q-120 0 -159.5 -36t-39.5 -152v-303h148
q104 0 145.5 29.5t52.5 135.5v109h131v-686h-131v102q-12 109 -54 137.5t-144 28.5h-148v-364zM635 1620l276 299q27 29 55 45t52 16q31 0 53.5 -23t22.5 -55q0 -27 -18 -48.5t-66 -51.5l-301 -182h-74z" />
    <glyph glyph-name="Ntilde" unicode="&#xd1;" horiz-adv-x="1749" 
d="M471 1219v-895q0 -116 31.5 -148.5t144.5 -32.5h49v-143h-639v143h90q98 0 132 34.5t34 154.5v770q0 149 -31 189t-137 40h-88v144h498l735 -1108v776q0 123 -31 155.5t-145 32.5h-72v144h662v-144h-94q-95 0 -128.5 -35t-33.5 -153v-1143h-166zM1188 1937
q-22 -113 -71.5 -171t-123.5 -58q-12 0 -24.5 1.5t-27.5 4.5l-106 26q-27 7 -37.5 9t-15.5 2q-42 0 -64 -20t-38 -72h-58q22 115 72 174t125 59q9 0 25 -2.5t38 -7.5l109 -27q12 -3 25 -4.5t26 -1.5q34 0 56 22t32 66h58z" />
    <glyph glyph-name="Odieresis" unicode="&#xd6;" horiz-adv-x="1835" 
d="M123 741q0 338 222.5 552t572.5 214q351 0 572.5 -214.5t221.5 -557.5t-221.5 -558.5t-572.5 -215.5q-353 0 -574 216.5t-221 563.5zM920 1366q-234 0 -369 -168.5t-135 -462.5t134.5 -462.5t369.5 -168.5q234 0 365.5 166t131.5 465t-131.5 465t-365.5 166zM988 1783
q0 45 33 78t79 33q47 0 80 -32.5t33 -78.5q0 -48 -32.5 -81t-80.5 -33q-47 0 -79.5 33t-32.5 81zM623 1783q0 45 34.5 78t80.5 33t78 -32t32 -79q0 -49 -31.5 -81.5t-78.5 -32.5q-48 0 -81.5 33t-33.5 81z" />
    <glyph glyph-name="Udieresis" unicode="&#xdc;" horiz-adv-x="1726" 
d="M49 1331v144h739v-144h-86q-95 0 -131 -39.5t-36 -156.5v-525q0 -251 88 -360t284 -109q191 0 279 112t88 357v525q0 123 -37 159.5t-131 36.5h-84v144h668v-144h-84q-96 0 -132 -35t-36 -170v-516q0 -337 -144 -494t-448 -157q-136 0 -244 39.5t-180 116.5
q-64 68 -91.5 153.5t-27.5 249.5v76v541q0 118 -34.5 157t-137.5 39h-82zM949 1783q0 45 33 78t79 33q47 0 80 -32.5t33 -78.5q0 -48 -32.5 -81t-80.5 -33q-47 0 -79.5 33t-32.5 81zM584 1783q0 45 34.5 78t80.5 33t78 -32t32 -79q0 -49 -31.5 -81.5t-78.5 -32.5
q-48 0 -81.5 33t-33.5 81z" />
    <glyph glyph-name="aacute" unicode="&#xe1;" horiz-adv-x="1223" 
d="M813 569q-222 -26 -348.5 -107.5t-126.5 -195.5q0 -70 41 -109.5t115 -39.5q152 0 236.5 100.5t84.5 282.5q0 28 -0.5 42.5t-1.5 26.5zM829 164q-70 -95 -177 -147t-232 -52q-147 0 -232.5 70.5t-85.5 191.5q0 173 179 290t532 175v94q0 123 -68.5 186.5t-199.5 63.5
q-82 0 -147 -28t-91 -74q11 -12 34 -30q50 -39 50 -93q0 -55 -35 -85t-100 -30q-61 0 -95 36.5t-34 103.5q0 144 121.5 229.5t333.5 85.5q89 0 169 -21.5t138 -60.5q68 -45 95.5 -108.5t27.5 -215.5v-552q0 -52 14.5 -75.5t46.5 -23.5q26 0 42.5 18t23.5 52h84v-4
q0 -88 -54 -140.5t-143 -52.5q-86 0 -136 50t-61 147zM424 1264l276 299q27 29 55 45t52 16q31 0 53.5 -23t22.5 -55q0 -27 -18 -48.5t-66 -51.5l-301 -182h-74z" />
    <glyph glyph-name="agrave" unicode="&#xe0;" horiz-adv-x="1223" 
d="M813 569q-222 -26 -348.5 -107.5t-126.5 -195.5q0 -70 41 -109.5t115 -39.5q152 0 236.5 100.5t84.5 282.5q0 28 -0.5 42.5t-1.5 26.5zM829 164q-70 -95 -177 -147t-232 -52q-147 0 -232.5 70.5t-85.5 191.5q0 173 179 290t532 175v94q0 123 -68.5 186.5t-199.5 63.5
q-82 0 -147 -28t-91 -74q11 -12 34 -30q50 -39 50 -93q0 -55 -35 -85t-100 -30q-61 0 -95 36.5t-34 103.5q0 144 121.5 229.5t333.5 85.5q89 0 169 -21.5t138 -60.5q68 -45 95.5 -108.5t27.5 -215.5v-552q0 -52 14.5 -75.5t46.5 -23.5q26 0 42.5 18t23.5 52h84v-4
q0 -88 -54 -140.5t-143 -52.5q-86 0 -136 50t-61 147zM776 1264h-74l-301 182q-48 30 -66 51.5t-18 48.5q0 32 22.5 55t53.5 23q24 0 52 -16t55 -45z" />
    <glyph glyph-name="acircumflex" unicode="&#xe2;" horiz-adv-x="1223" 
d="M813 569q-222 -26 -348.5 -107.5t-126.5 -195.5q0 -70 41 -109.5t115 -39.5q152 0 236.5 100.5t84.5 282.5q0 28 -0.5 42.5t-1.5 26.5zM829 164q-70 -95 -177 -147t-232 -52q-147 0 -232.5 70.5t-85.5 191.5q0 173 179 290t532 175v94q0 123 -68.5 186.5t-199.5 63.5
q-82 0 -147 -28t-91 -74q11 -12 34 -30q50 -39 50 -93q0 -55 -35 -85t-100 -30q-61 0 -95 36.5t-34 103.5q0 144 121.5 229.5t333.5 85.5q89 0 169 -21.5t138 -60.5q68 -45 95.5 -108.5t27.5 -215.5v-552q0 -52 14.5 -75.5t46.5 -23.5q26 0 42.5 18t23.5 52h84v-4
q0 -88 -54 -140.5t-143 -52.5q-86 0 -136 50t-61 147zM305 1264l227 348h134l229 -348h-74l-221 194l-221 -194h-74z" />
    <glyph glyph-name="adieresis" unicode="&#xe4;" horiz-adv-x="1223" 
d="M813 569q-222 -26 -348.5 -107.5t-126.5 -195.5q0 -70 41 -109.5t115 -39.5q152 0 236.5 100.5t84.5 282.5q0 28 -0.5 42.5t-1.5 26.5zM829 164q-70 -95 -177 -147t-232 -52q-147 0 -232.5 70.5t-85.5 191.5q0 173 179 290t532 175v94q0 123 -68.5 186.5t-199.5 63.5
q-82 0 -147 -28t-91 -74q11 -12 34 -30q50 -39 50 -93q0 -55 -35 -85t-100 -30q-61 0 -95 36.5t-34 103.5q0 144 121.5 229.5t333.5 85.5q89 0 169 -21.5t138 -60.5q68 -45 95.5 -108.5t27.5 -215.5v-552q0 -52 14.5 -75.5t46.5 -23.5q26 0 42.5 18t23.5 52h84v-4
q0 -88 -54 -140.5t-143 -52.5q-86 0 -136 50t-61 147zM670 1427q0 45 33 78t79 33q47 0 80 -32.5t33 -78.5q0 -48 -32.5 -81t-80.5 -33q-47 0 -79.5 33t-32.5 81zM305 1427q0 45 34.5 78t80.5 33t78 -32t32 -79q0 -49 -31.5 -81.5t-78.5 -32.5q-48 0 -81.5 33t-33.5 81z" />
    <glyph glyph-name="atilde" unicode="&#xe3;" horiz-adv-x="1223" 
d="M813 569q-222 -26 -348.5 -107.5t-126.5 -195.5q0 -70 41 -109.5t115 -39.5q152 0 236.5 100.5t84.5 282.5q0 28 -0.5 42.5t-1.5 26.5zM829 164q-70 -95 -177 -147t-232 -52q-147 0 -232.5 70.5t-85.5 191.5q0 173 179 290t532 175v94q0 123 -68.5 186.5t-199.5 63.5
q-82 0 -147 -28t-91 -74q11 -12 34 -30q50 -39 50 -93q0 -55 -35 -85t-100 -30q-61 0 -95 36.5t-34 103.5q0 144 121.5 229.5t333.5 85.5q89 0 169 -21.5t138 -60.5q68 -45 95.5 -108.5t27.5 -215.5v-552q0 -52 14.5 -75.5t46.5 -23.5q26 0 42.5 18t23.5 52h84v-4
q0 -88 -54 -140.5t-143 -52.5q-86 0 -136 50t-61 147zM883 1581q-22 -113 -71.5 -171t-123.5 -58q-12 0 -24.5 1.5t-27.5 4.5l-106 26q-27 7 -37.5 9t-15.5 2q-42 0 -64 -20t-38 -72h-58q22 115 72 174t125 59q9 0 25 -2.5t38 -7.5l109 -27q12 -3 25 -4.5t26 -1.5
q34 0 56 22t32 66h58z" />
    <glyph glyph-name="aring" unicode="&#xe5;" horiz-adv-x="1223" 
d="M451 1464q0 -59 41 -100t100 -41t100 41t41 100q0 60 -41 102t-100 42t-100 -42t-41 -102zM344 1466q0 103 72 174.5t176 71.5t176 -71.5t72 -174.5q0 -105 -72 -177t-176 -72t-176 72t-72 177zM829 164q-70 -95 -177 -147t-232 -52q-147 0 -232.5 70.5t-85.5 191.5
q0 173 179 290t532 175v94q0 123 -68.5 186.5t-199.5 63.5q-82 0 -147 -28t-91 -74q11 -12 34 -30q50 -39 50 -93q0 -55 -35 -85t-100 -30q-61 0 -95 36.5t-34 103.5q0 144 121.5 229.5t333.5 85.5q89 0 169 -21.5t138 -60.5q68 -45 95.5 -108.5t27.5 -215.5v-552
q0 -52 14.5 -75.5t46.5 -23.5q26 0 42.5 18t23.5 52h84v-4q0 -88 -54 -140.5t-143 -52.5q-86 0 -136 50t-61 147zM813 569q-222 -26 -348.5 -107.5t-126.5 -195.5q0 -70 41 -109.5t115 -39.5q152 0 236.5 100.5t84.5 282.5q0 28 -0.5 42.5t-1.5 26.5z" />
    <glyph glyph-name="ccedilla" unicode="&#xe7;" horiz-adv-x="1143" 
d="M1077 326q-58 -179 -172.5 -269t-283.5 -90q-232 0 -376.5 164t-144.5 428q0 267 147 430.5t384 163.5q167 0 278 -91t111 -220q0 -79 -43.5 -128.5t-112.5 -49.5q-67 0 -109 40t-42 105q0 54 51 113q18 21 26 32q-15 39 -54 59.5t-97 20.5q-144 0 -223.5 -124
t-79.5 -351q0 -233 76 -353t223 -120q117 0 204 71.5t134 207.5zM327 -379l39 90q59 -37 119.5 -57.5t112.5 -20.5q56 0 83 22t27 69q0 43 -27.5 64.5t-82.5 21.5q-4 0 -16.5 -1.5t-43.5 -4.5v196h66v-115q16 2 31.5 3t37.5 1q81 0 130 -45.5t49 -119.5q0 -84 -59.5 -131.5
t-166.5 -47.5q-58 0 -128.5 18t-170.5 58z" />
    <glyph glyph-name="eacute" unicode="&#xe9;" horiz-adv-x="1161" 
d="M1028 209q-72 -122 -170 -182t-223 -60q-242 0 -388.5 162t-146.5 430q0 266 142.5 429t373.5 163q202 0 326.5 -157t124.5 -416v-17h-731v-24q0 -216 78 -333.5t221 -117.5q98 0 167.5 47t129.5 154zM342 680h489q-3 169 -62 256.5t-169 87.5q-116 0 -182.5 -88.5
t-75.5 -255.5zM430 1264l276 299q27 29 55 45t52 16q31 0 53.5 -23t22.5 -55q0 -27 -18 -48.5t-66 -51.5l-301 -182h-74z" />
    <glyph glyph-name="egrave" unicode="&#xe8;" horiz-adv-x="1161" 
d="M1028 209q-72 -122 -170 -182t-223 -60q-242 0 -388.5 162t-146.5 430q0 266 142.5 429t373.5 163q202 0 326.5 -157t124.5 -416v-17h-731v-24q0 -216 78 -333.5t221 -117.5q98 0 167.5 47t129.5 154zM342 680h489q-3 169 -62 256.5t-169 87.5q-116 0 -182.5 -88.5
t-75.5 -255.5zM782 1264h-74l-301 182q-48 30 -66 51.5t-18 48.5q0 32 22.5 55t53.5 23q24 0 52 -16t55 -45z" />
    <glyph glyph-name="ecircumflex" unicode="&#xea;" horiz-adv-x="1161" 
d="M1028 209q-72 -122 -170 -182t-223 -60q-242 0 -388.5 162t-146.5 430q0 266 142.5 429t373.5 163q202 0 326.5 -157t124.5 -416v-17h-731v-24q0 -216 78 -333.5t221 -117.5q98 0 167.5 47t129.5 154zM342 680h489q-3 169 -62 256.5t-169 87.5q-116 0 -182.5 -88.5
t-75.5 -255.5zM311 1264l227 348h134l229 -348h-74l-221 194l-221 -194h-74z" />
    <glyph glyph-name="edieresis" unicode="&#xeb;" horiz-adv-x="1161" 
d="M1028 209q-72 -122 -170 -182t-223 -60q-242 0 -388.5 162t-146.5 430q0 266 142.5 429t373.5 163q202 0 326.5 -157t124.5 -416v-17h-731v-24q0 -216 78 -333.5t221 -117.5q98 0 167.5 47t129.5 154zM342 680h489q-3 169 -62 256.5t-169 87.5q-116 0 -182.5 -88.5
t-75.5 -255.5zM676 1427q0 45 33 78t79 33q47 0 80 -32.5t33 -78.5q0 -48 -32.5 -81t-80.5 -33q-47 0 -79.5 33t-32.5 81zM311 1427q0 45 34.5 78t80.5 33t78 -32t32 -79q0 -49 -31.5 -81.5t-78.5 -32.5q-48 0 -81.5 33t-33.5 81z" />
    <glyph glyph-name="iacute" unicode="&#xed;" horiz-adv-x="631" 
d="M424 317q0 -122 34 -158t144 -46v-113h-567v112q118 8 154 43.5t36 161.5v469q0 127 -36.5 162.5t-153.5 43.5v122q15 0 45.5 -1t44.5 -1q79 0 152.5 5t146.5 16v-816zM115 1264l276 299q27 29 55 45t52 16q31 0 53.5 -23t22.5 -55q0 -27 -18 -48.5t-66 -51.5l-301 -182
h-74z" />
    <glyph glyph-name="igrave" unicode="&#xec;" horiz-adv-x="631" 
d="M424 317q0 -122 34 -158t144 -46v-113h-567v112q118 8 154 43.5t36 161.5v469q0 127 -36.5 162.5t-153.5 43.5v122q15 0 45.5 -1t44.5 -1q79 0 152.5 5t146.5 16v-816zM467 1264h-74l-301 182q-48 30 -66 51.5t-18 48.5q0 32 22.5 55t53.5 23q24 0 52 -16t55 -45z" />
    <glyph glyph-name="icircumflex" unicode="&#xee;" horiz-adv-x="631" 
d="M424 317q0 -122 34 -158t144 -46v-113h-567v112q118 8 154 43.5t36 161.5v469q0 127 -36.5 162.5t-153.5 43.5v122q15 0 45.5 -1t44.5 -1q79 0 152.5 5t146.5 16v-816zM-4 1264l227 348h134l229 -348h-74l-221 194l-221 -194h-74z" />
    <glyph glyph-name="idieresis" unicode="&#xef;" horiz-adv-x="631" 
d="M424 317q0 -122 34 -158t144 -46v-113h-567v112q118 8 154 43.5t36 161.5v469q0 127 -36.5 162.5t-153.5 43.5v122q15 0 45.5 -1t44.5 -1q79 0 152.5 5t146.5 16v-816zM361 1427q0 45 33 78t79 33q47 0 80 -32.5t33 -78.5q0 -48 -32.5 -81t-80.5 -33q-47 0 -79.5 33
t-32.5 81zM-4 1427q0 45 34.5 78t80.5 33t78 -32t32 -79q0 -49 -31.5 -81.5t-78.5 -32.5q-48 0 -81.5 33t-33.5 81z" />
    <glyph glyph-name="ntilde" unicode="&#xf1;" horiz-adv-x="1360" 
d="M424 317q0 -123 35.5 -159.5t150.5 -44.5v-113h-557v113q107 11 139.5 47t32.5 157v469q0 122 -32.5 158t-139.5 47v123q13 0 37.5 -1t36.5 -1q66 0 137.5 5t151.5 16v-256q74 126 174 191t221 65q156 0 250 -97t94 -256v-463q0 -121 33 -157t139 -47v-113h-557v113
q115 8 150.5 44.5t35.5 159.5v365q0 168 -47 232.5t-157 64.5q-151 0 -239.5 -129.5t-88.5 -353.5v-179zM963 1581q-22 -113 -71.5 -171t-123.5 -58q-12 0 -24.5 1.5t-27.5 4.5l-106 26q-27 7 -37.5 9t-15.5 2q-42 0 -64 -20t-38 -72h-58q22 115 72 174t125 59q9 0 25 -2.5
t38 -7.5l109 -27q12 -3 25 -4.5t26 -1.5q34 0 56 22t32 66h58z" />
    <glyph glyph-name="oacute" unicode="&#xf3;" horiz-adv-x="1270" 
d="M635 86q152 0 225.5 116.5t73.5 356.5q0 241 -74 358t-225 117q-152 0 -225.5 -117t-73.5 -358q0 -240 73.5 -356.5t225.5 -116.5zM635 -33q-239 0 -387 163t-148 429q0 268 147 430t388 162t388.5 -162t147.5 -430q0 -266 -148 -429t-388 -163zM459 1264l276 299
q27 29 55 45t52 16q31 0 53.5 -23t22.5 -55q0 -27 -18 -48.5t-66 -51.5l-301 -182h-74z" />
    <glyph glyph-name="ograve" unicode="&#xf2;" horiz-adv-x="1270" 
d="M635 86q152 0 225.5 116.5t73.5 356.5q0 241 -74 358t-225 117q-152 0 -225.5 -117t-73.5 -358q0 -240 73.5 -356.5t225.5 -116.5zM635 -33q-239 0 -387 163t-148 429q0 268 147 430t388 162t388.5 -162t147.5 -430q0 -266 -148 -429t-388 -163zM811 1264h-74l-301 182
q-48 30 -66 51.5t-18 48.5q0 32 22.5 55t53.5 23q24 0 52 -16t55 -45z" />
    <glyph glyph-name="ocircumflex" unicode="&#xf4;" horiz-adv-x="1270" 
d="M635 86q152 0 225.5 116.5t73.5 356.5q0 241 -74 358t-225 117q-152 0 -225.5 -117t-73.5 -358q0 -240 73.5 -356.5t225.5 -116.5zM635 -33q-239 0 -387 163t-148 429q0 268 147 430t388 162t388.5 -162t147.5 -430q0 -266 -148 -429t-388 -163zM340 1264l227 348h134
l229 -348h-74l-221 194l-221 -194h-74z" />
    <glyph glyph-name="odieresis" unicode="&#xf6;" horiz-adv-x="1270" 
d="M635 86q152 0 225.5 116.5t73.5 356.5q0 241 -74 358t-225 117q-152 0 -225.5 -117t-73.5 -358q0 -240 73.5 -356.5t225.5 -116.5zM635 -33q-239 0 -387 163t-148 429q0 268 147 430t388 162t388.5 -162t147.5 -430q0 -266 -148 -429t-388 -163zM705 1427q0 45 33 78
t79 33q47 0 80 -32.5t33 -78.5q0 -48 -32.5 -81t-80.5 -33q-47 0 -79.5 33t-32.5 81zM340 1427q0 45 34.5 78t80.5 33t78 -32t32 -79q0 -49 -31.5 -81.5t-78.5 -32.5q-48 0 -81.5 33t-33.5 81z" />
    <glyph glyph-name="otilde" unicode="&#xf5;" horiz-adv-x="1270" 
d="M635 86q152 0 225.5 116.5t73.5 356.5q0 241 -74 358t-225 117q-152 0 -225.5 -117t-73.5 -358q0 -240 73.5 -356.5t225.5 -116.5zM635 -33q-239 0 -387 163t-148 429q0 268 147 430t388 162t388.5 -162t147.5 -430q0 -266 -148 -429t-388 -163zM918 1581
q-22 -113 -71.5 -171t-123.5 -58q-12 0 -24.5 1.5t-27.5 4.5l-106 26q-27 7 -37.5 9t-15.5 2q-42 0 -64 -20t-38 -72h-58q22 115 72 174t125 59q9 0 25 -2.5t38 -7.5l109 -27q12 -3 25 -4.5t26 -1.5q34 0 56 22t32 66h58z" />
    <glyph glyph-name="uacute" unicode="&#xfa;" horiz-adv-x="1360" 
d="M936 801q0 124 -36 161t-150 46v110q87 0 182 5t203 16v-811q0 -123 33.5 -159.5t137.5 -47.5l1 -121q-11 0 -32.5 1t-31.5 1q-73 0 -146.5 -5.5t-152.5 -16.5v243q-73 -126 -173.5 -191t-221.5 -65q-176 0 -260 106.5t-84 332.5v395q0 122 -33.5 158.5t-138.5 48.5v110
q86 0 178.5 5t194.5 16v-736q0 -154 47 -218t155 -64q151 0 239.5 129.5t88.5 353.5v197zM481 1264l276 299q27 29 55 45t52 16q31 0 53.5 -23t22.5 -55q0 -27 -18 -48.5t-66 -51.5l-301 -182h-74z" />
    <glyph glyph-name="ugrave" unicode="&#xf9;" horiz-adv-x="1360" 
d="M936 801q0 124 -36 161t-150 46v110q87 0 182 5t203 16v-811q0 -123 33.5 -159.5t137.5 -47.5l1 -121q-11 0 -32.5 1t-31.5 1q-73 0 -146.5 -5.5t-152.5 -16.5v243q-73 -126 -173.5 -191t-221.5 -65q-176 0 -260 106.5t-84 332.5v395q0 122 -33.5 158.5t-138.5 48.5v110
q86 0 178.5 5t194.5 16v-736q0 -154 47 -218t155 -64q151 0 239.5 129.5t88.5 353.5v197zM833 1264h-74l-301 182q-48 30 -66 51.5t-18 48.5q0 32 22.5 55t53.5 23q24 0 52 -16t55 -45z" />
    <glyph glyph-name="ucircumflex" unicode="&#xfb;" horiz-adv-x="1360" 
d="M936 801q0 124 -36 161t-150 46v110q87 0 182 5t203 16v-811q0 -123 33.5 -159.5t137.5 -47.5l1 -121q-11 0 -32.5 1t-31.5 1q-73 0 -146.5 -5.5t-152.5 -16.5v243q-73 -126 -173.5 -191t-221.5 -65q-176 0 -260 106.5t-84 332.5v395q0 122 -33.5 158.5t-138.5 48.5v110
q86 0 178.5 5t194.5 16v-736q0 -154 47 -218t155 -64q151 0 239.5 129.5t88.5 353.5v197zM362 1264l227 348h134l229 -348h-74l-221 194l-221 -194h-74z" />
    <glyph glyph-name="udieresis" unicode="&#xfc;" horiz-adv-x="1360" 
d="M936 801q0 124 -36 161t-150 46v110q87 0 182 5t203 16v-811q0 -123 33.5 -159.5t137.5 -47.5l1 -121q-11 0 -32.5 1t-31.5 1q-73 0 -146.5 -5.5t-152.5 -16.5v243q-73 -126 -173.5 -191t-221.5 -65q-176 0 -260 106.5t-84 332.5v395q0 122 -33.5 158.5t-138.5 48.5v110
q86 0 178.5 5t194.5 16v-736q0 -154 47 -218t155 -64q151 0 239.5 129.5t88.5 353.5v197zM727 1427q0 45 33 78t79 33q47 0 80 -32.5t33 -78.5q0 -48 -32.5 -81t-80.5 -33q-47 0 -79.5 33t-32.5 81zM362 1427q0 45 34.5 78t80.5 33t78 -32t32 -79q0 -49 -31.5 -81.5
t-78.5 -32.5q-48 0 -81.5 33t-33.5 81z" />
    <glyph glyph-name="dagger" unicode="&#x2020;" 
d="M485 -229q-9 291 -33 484.5t-69 373.5q50 81 76 168.5t26 175.5v20q-67 -2 -156.5 -45t-131.5 -43q-53 0 -84 29.5t-31 79.5q0 49 34.5 80.5t86.5 31.5q42 0 132 -40t150 -41v22q0 95 -44 200.5t-44 129.5q0 48 32.5 79t82.5 31q53 0 86 -30t33 -78q0 -12 -45 -121
t-45 -215v-19h4q66 0 153.5 41t126.5 41q56 0 86.5 -28.5t30.5 -81.5t-31 -83t-86 -30q-43 0 -130.5 42t-155.5 46q6 -119 32 -207t74 -155q-48 -169 -73 -385.5t-25 -472.5h-62z" />
    <glyph glyph-name="degree" unicode="&#xb0;" horiz-adv-x="674" 
d="M338 1362q-81 0 -138 -56t-57 -137t57 -138.5t138 -57.5t136.5 57.5t55.5 138.5t-55.5 137t-136.5 56zM338 1456q118 0 202.5 -84.5t84.5 -204.5q0 -119 -84 -202.5t-205 -83.5t-204 83t-83 203t85 204.5t204 84.5z" />
    <glyph glyph-name="cent" unicode="&#xa2;" horiz-adv-x="1147" 
d="M434 233l283 594v15q0 58 38 103.5t38 47.5q0 26 -47 52t-109 26q-141 0 -220 -124t-79 -349q0 -130 23.5 -219t72.5 -146zM358 74q-132 96 -195 223.5t-63 300.5q0 267 147 429.5t388 162.5q58 0 113.5 -13.5t113.5 -41.5l123 260h105l-152 -322q43 -50 63.5 -97.5
t20.5 -101.5q0 -76 -44.5 -124t-117.5 -48q-23 1 -44 7.5t-42 19.5l-266 -563q33 -21 67 -31t72 -10q116 0 194.5 67t131.5 211l104 -38q-60 -184 -172.5 -272.5t-283.5 -88.5q-44 0 -86.5 8.5t-88.5 26.5l-145 -305h-104z" />
    <glyph glyph-name="sterling" unicode="&#xa3;" horiz-adv-x="1147" 
d="M100 731v88h201q-36 91 -53 163t-17 132q0 175 115 285t299 110q158 0 262.5 -81t104.5 -201q0 -72 -39 -115t-103 -43q-53 0 -90 36.5t-37 90.5q0 46 34 79t34 36q0 36 -43.5 63t-108.5 27q-100 0 -156.5 -56t-56.5 -155q0 -46 39.5 -170t57.5 -201h321v-88h-303
q4 -34 6 -61.5t2 -42.5q0 -109 -46.5 -201t-205.5 -256q54 28 108.5 41.5t115.5 13.5q69 0 170.5 -31.5t132.5 -31.5q45 0 73.5 35.5t43.5 109.5h90v-6q0 -158 -80 -249t-217 -91q-96 0 -223.5 61.5t-159.5 61.5q-41 0 -79.5 -61.5t-92.5 -61.5q-46 0 -74.5 29t-28.5 76
q0 85 132 128q14 4 22 7q42 14 78.5 105t36.5 198q0 53 -9.5 108.5t-29.5 118.5h-226z" />
    <glyph glyph-name="section" unicode="&#xa7;" 
d="M260 770q0 -48 32.5 -99t100.5 -110q113 -98 157.5 -124.5t78.5 -26.5q56 0 95.5 36.5t39.5 90.5q0 49 -36 104t-112 121q-95 85 -140 110t-85 25q-55 0 -93 -37.5t-38 -89.5zM646 352q96 -81 142 -153t46 -144q0 -115 -98.5 -185.5t-262.5 -70.5q-136 0 -223.5 61
t-87.5 154q0 62 37.5 100t97.5 38q49 0 82 -33.5t33 -81.5q0 -41 -32 -75t-32 -44q0 -28 35 -45.5t92 -17.5q80 0 127 39t47 104q0 83 -187 244l-13 12l-181 156q-89 77 -132.5 147t-43.5 137q0 110 78.5 180t208.5 76q-105 91 -147 157t-42 136q0 121 91 192.5t247 71.5
q132 0 215.5 -60.5t83.5 -154.5q0 -60 -34.5 -96.5t-92.5 -36.5q-52 0 -87 30.5t-35 76.5q0 33 31.5 70t31.5 50q0 26 -34 47t-81 21q-68 0 -110.5 -37.5t-42.5 -97.5q0 -54 38 -108.5t169 -166.5l178 -149q88 -75 131 -146.5t43 -146.5q0 -105 -77.5 -172.5t-208.5 -77.5z
" />
    <glyph glyph-name="bullet" unicode="&#x2022;" horiz-adv-x="1208" 
d="M307 762q0 123 87 209t210 86q122 0 208.5 -86.5t86.5 -208.5t-87.5 -209.5t-209.5 -87.5q-123 0 -209 87t-86 210z" />
    <glyph glyph-name="paragraph" unicode="&#xb6;" 
d="M958 1479v-86h-120v-1393h-111v1393h-176v-1393h-113v782q-170 8 -271 102.5t-101 245.5q0 157 107.5 253t285.5 96h499z" />
    <glyph glyph-name="germandbls" unicode="&#xdf;" horiz-adv-x="1262" 
d="M45 0v113q106 12 138 45.5t32 158.5v801q0 217 100.5 322.5t307.5 105.5q194 0 315 -90.5t121 -232.5q0 -124 -73.5 -202.5t-223.5 -115.5q210 -48 307.5 -165t97.5 -320q0 -212 -104.5 -338.5t-278.5 -126.5q-122 0 -197 62.5t-75 160.5q0 69 37 112.5t96 43.5
q56 0 87.5 -29.5t31.5 -81.5q0 -43 -34 -70t-34 -32q0 -18 20.5 -33.5t49.5 -15.5q81 0 125.5 89.5t44.5 252.5q0 223 -75 320t-247 97h-28v113h18q108 0 166.5 66t58.5 186q0 112 -54.5 174t-153.5 62q-109 0 -158 -58.5t-49 -189.5v-1184h-369z" />
    <glyph glyph-name="registered" unicode="&#xae;" horiz-adv-x="1683" 
d="M738 721q13 -1 28 -1.5t35 -0.5q105 0 163 45t58 127q0 72 -50 116t-134 44q-51 0 -76 -17.5t-25 -52.5zM467 1094h397q144 0 231 -54t87 -141q0 -83 -66 -131.5t-219 -75.5q95 -28 145 -76.5t68 -130.5q1 -9 3 -28q11 -125 67 -125q31 0 47 33.5t16 97.5h45v-19
q0 -84 -41 -129t-119 -45q-49 0 -84 16t-51 46q-20 37 -22 110t-8 97q-19 71 -66.5 105t-130.5 34h-29v-246q0 -51 25.5 -72t93.5 -27v-44h-389v44q69 4 95 25.5t26 73.5v516q0 53 -26 74.5t-95 26.5v45zM844 1305q-123 0 -238 -49t-203 -138q-88 -90 -134 -202.5
t-46 -237.5q0 -127 46.5 -239t136.5 -201q89 -90 199.5 -136.5t236.5 -46.5q125 0 237 47t199 136q88 90 135 203t47 237q0 125 -47.5 242t-132.5 202q-86 86 -201 134.5t-235 48.5zM844 1391q140 0 273 -56t233 -157q97 -99 149.5 -230.5t52.5 -275.5q0 -139 -56 -270
t-161 -234q-100 -99 -228 -150t-276 -51q-134 0 -261.5 54.5t-229.5 154.5q-102 101 -155.5 229t-53.5 273q0 142 53 270.5t154 231.5q100 101 231.5 156t274.5 55z" />
    <glyph glyph-name="copyright" unicode="&#xa9;" horiz-adv-x="1683" 
d="M1122 1098h37l2 -316h-43q-32 135 -103 204t-177 69q-119 0 -179.5 -93.5t-60.5 -277.5q0 -187 66.5 -284t193.5 -97q84 0 153.5 44t127.5 132l39 -26q-61 -105 -148 -158t-199 -53q-173 0 -292 124t-119 304q0 183 118.5 307.5t290.5 124.5q75 0 149.5 -33t80.5 -33
q27 0 42 14.5t21 47.5zM844 1305q-123 0 -238 -49t-203 -138q-88 -90 -134 -202.5t-46 -237.5q0 -127 46.5 -239t136.5 -201q91 -90 201.5 -136.5t234.5 -46.5q126 0 237 46.5t199 136.5q89 90 136.5 204t47.5 236q0 123 -48 241t-134 203q-86 86 -201 134.5t-235 48.5z
M844 1391q138 0 269 -54.5t230 -152.5q100 -99 154.5 -232t54.5 -274q0 -140 -53.5 -269.5t-155.5 -232.5q-99 -101 -228 -155t-273 -54q-142 0 -270 53.5t-232 155.5q-103 102 -156 229t-53 273q0 141 53.5 270t155.5 232q100 101 230.5 156t273.5 55z" />
    <glyph glyph-name="trademark" unicode="&#x2122;" horiz-adv-x="1683" 
d="M780 1442h191l137 -391l143 391h181v-25l-30 -2q-21 -2 -31.5 -15t-10.5 -38v-375q0 -25 10.5 -38t31.5 -15l30 -2v-29h-240v29l31 2q21 2 32 15.5t11 37.5v387l-172 -473h-21l-172 475v-389q0 -24 11 -37.5t32 -15.5l33 -2v-29h-197v29l34 2q20 2 31 15.5t11 37.5v371
q0 24 -11 37.5t-31 15.5l-34 4v27zM250 1442h444l11 -182h-27q-8 78 -40.5 114.5t-94.5 36.5h-17v-424q0 -24 10.5 -37.5t30.5 -15.5l33 -2v-29h-254v29l31 2q21 2 32 15.5t11 37.5v424h-17q-64 0 -96.5 -36t-40.5 -115h-26z" />
    <glyph glyph-name="acute" unicode="&#xb4;" 
d="M336 1264l276 299q27 29 55 45t52 16q31 0 53.5 -23t22.5 -55q0 -27 -18 -48.5t-66 -51.5l-301 -182h-74z" />
    <glyph glyph-name="dieresis" unicode="&#xa8;" 
d="M582 1427q0 45 33 78t79 33q47 0 80 -32.5t33 -78.5q0 -48 -32.5 -81t-80.5 -33q-47 0 -79.5 33t-32.5 81zM217 1427q0 45 34.5 78t80.5 33t78 -32t32 -79q0 -49 -31.5 -81.5t-78.5 -32.5q-48 0 -81.5 33t-33.5 81z" />
    <glyph glyph-name="notequal" unicode="&#x2260;" horiz-adv-x="1706" 
d="M1208 1194l105 -82l-187 -235h326v-136h-416l-205 -262h621v-135h-709l-249 -317l-105 84l184 233h-319v135h408l204 262h-612v136h702z" />
    <glyph glyph-name="AE" unicode="&#xc6;" horiz-adv-x="2175" 
d="M1178 696v-368q0 -111 41.5 -149t160.5 -38h207q148 0 203.5 32.5t62.5 118.5l23 259h160v-551h-1282v141q118 5 155 40.5t37 150.5v280h-450l-142 -262q-17 -33 -29 -72t-12 -61q0 -40 33.5 -58t112.5 -18h16v-141h-532v141q7 -1 13.5 -1.5t18.5 -0.5q57 0 93 26.5
t88 125.5l450 842q18 33 27.5 60.5t9.5 47.5q0 44 -39 69t-108 25q-8 0 -36 -1.5t-44 -2.5l12 144h1602v-533h-158l-23 240q-8 86 -62 117.5t-204 31.5h-192q-133 0 -173 -36.5t-40 -151.5v-303h98q121 0 166 36t45 130v98h149v-680h-149v106q0 94 -46 130t-165 36h-98z
M569 752h375v495q0 33 -13.5 51.5t-37.5 18.5q-8 0 -31 -9l-3 -1z" />
    <glyph glyph-name="Oslash" unicode="&#xd8;" horiz-adv-x="1835" 
d="M397 135q-137 110 -205.5 259.5t-68.5 340.5q0 339 220.5 555.5t559.5 216.5q120 0 222 -22.5t186 -67.5l170 238h137l-209 -297q152 -111 227.5 -266t75.5 -357q0 -342 -222 -558t-572 -216q-118 0 -220.5 26t-205.5 83l-179 -250h-141zM522 307l686 967
q-58 46 -130.5 69t-157.5 23q-234 0 -369 -168t-135 -459q0 -122 26.5 -229.5t79.5 -202.5zM1292 1192l-694 -973q75 -60 152 -87.5t170 -27.5q234 0 365.5 166t131.5 465q0 152 -30.5 264.5t-94.5 192.5z" />
    <glyph glyph-name="infinity" unicode="&#x221e;" horiz-adv-x="1706" 
d="M915 559q50 -89 116.5 -133.5t150.5 -44.5q101 0 165 67.5t64 172.5q0 101 -59 168t-148 67q-81 0 -146.5 -66.5t-142.5 -230.5zM793 666q-49 88 -115.5 132t-151.5 44q-101 0 -165 -66.5t-64 -171.5q0 -101 59 -168t148 -67q81 0 146.5 66t142.5 231zM864 483
q-71 -136 -148.5 -199t-172.5 -63q-135 0 -228.5 112t-93.5 277q0 175 83.5 283t217.5 108q95 0 170 -61.5t150 -202.5q68 138 147 203.5t176 65.5q133 0 227.5 -113t94.5 -279q0 -174 -83.5 -281.5t-217.5 -107.5q-95 0 -168.5 58.5t-153.5 199.5z" />
    <glyph glyph-name="plusminus" unicode="&#xb1;" horiz-adv-x="1706" 
d="M254 170h1198v-141h-1198v141zM782 1192h142v-340h528v-139h-528v-340h-142v340h-528v139h528v340z" />
    <glyph glyph-name="lessequal" unicode="&#x2264;" horiz-adv-x="1706" 
d="M262 162h1184v-139h-1184v139zM1444 1206v-147l-936 -309l936 -306v-149l-1182 395v121z" />
    <glyph glyph-name="greaterequal" unicode="&#x2265;" horiz-adv-x="1706" 
d="M262 162h1184v-139h-1184v139zM262 1206l1184 -395v-121l-1184 -395v149l938 306l-938 309v147z" />
    <glyph glyph-name="yen" unicode="&#xa5;" horiz-adv-x="1575" 
d="M1595 1475v-144q-106 -10 -183 -58.5t-140 -144.5l-88 -139h375v-100h-441l-145 -227h586v-99h-658v-235q0 -112 42.5 -149.5t154.5 -37.5h121v-141h-836v141h121q112 0 155 38.5t43 152.5v231h-673v99h604l-160 227h-444v100h374l-157 228q-40 58 -91.5 83t-152.5 31
v144h688v-144h-92q-59 0 -91 -21.5t-32 -62.5q0 -19 8.5 -39.5t32.5 -56.5l324 -485l309 493q10 17 16 36.5t6 35.5q0 45 -32 72.5t-84 27.5h-90v144h630z" />
    <glyph glyph-name="mu" unicode="&#xb5;" horiz-adv-x="1169" 
d="M166 195q-33 -143 -64 -355q-37 -260 -116 -260q-43 0 -65.5 24.5t-22.5 69.5q0 44 70 277t110 422l108 512h168l-100 -475q-9 -40 -13.5 -74.5t-4.5 -59.5q0 -70 41.5 -108.5t119.5 -38.5q97 0 154 54.5t82 172.5l112 529h173l-115 -532q-9 -43 -14 -75.5t-5 -52.5
q0 -48 26.5 -74t76.5 -26q44 0 81 25t58 69q13 27 27 73q17 56 39 56q9 0 15.5 -8t6.5 -21q0 -34 -13.5 -88t-35.5 -100q-39 -78 -92.5 -117t-122.5 -39q-81 0 -125.5 55t-44.5 154v13q-52 -115 -123 -168.5t-172 -53.5q-95 0 -151 56t-68 164z" />
    <glyph glyph-name="partialdiff" unicode="&#x2202;" horiz-adv-x="1059" 
d="M756 621q15 87 22.5 168.5t7.5 156.5q0 129 -36.5 194.5t-108.5 65.5q-55 0 -127 -58t-108 -58t-60 22t-24 53q0 62 72 111t173 49q180 0 287 -155t107 -418q0 -335 -144.5 -556t-357.5 -221q-152 0 -253.5 108t-101.5 271q0 198 110.5 326.5t272.5 128.5
q101 0 166 -45.5t103 -142.5zM707 494q0 116 -43.5 178.5t-122.5 62.5q-109 0 -179.5 -129t-70.5 -336q0 -116 43 -177.5t123 -61.5q109 0 179.5 130t70.5 333z" />
    <glyph glyph-name="summation" unicode="&#x2211;" horiz-adv-x="1462" 
d="M16 1473h1162l110 -365h-78l-73 227q-11 34 -41.5 49t-98.5 15h-690l809 -832v-37l-825 -735h887q61 0 79 13t29 51l72 229h78l-148 -481h-1272v41l920 815l-920 956v54z" />
    <glyph glyph-name="product" unicode="&#x220f;" horiz-adv-x="1630" 
d="M53 1473h1522v-74h-191v-1718h191v-74h-596v74h192v1718h-714v-1718h192v-74h-596v74h191v1718h-191v74z" />
    <glyph glyph-name="pi" unicode="&#x3c0;" horiz-adv-x="1389" 
d="M1370 885l-43 -199h-340q-33 -137 -37 -401q-1 -58 -2 -87q-3 -125 -32.5 -183t-90.5 -58q-42 0 -64 28t-22 83q0 58 77 259t114 359h-387q-35 -142 -40 -414q-1 -49 -1 -73q-4 -127 -33 -184.5t-90 -57.5q-42 0 -63 28t-21 83q0 59 76 260t112 358h-188
q-91 0 -135.5 -41.5t-67.5 -152.5h-57q40 218 124 305.5t251 87.5h960z" />
    <glyph glyph-name="integral" unicode="&#x222b;" horiz-adv-x="1067" 
d="M311 -262q106 0 120 688q2 108 3 165q12 515 107 737t297 222q80 0 130 -42t50 -107q0 -54 -32 -85.5t-87 -31.5q-42 0 -70 19t-40 54q-6 15 -10.5 51t-20.5 36q-107 0 -121 -619q-4 -193 -8 -303q-17 -479 -111.5 -686t-290.5 -207q-79 0 -129.5 41.5t-50.5 106.5
q0 56 34 87.5t95 31.5q33 0 57 -14.5t39 -42.5q10 -18 15 -59.5t24 -41.5z" />
    <glyph glyph-name="ordfeminine" unicode="&#xaa;" horiz-adv-x="918" 
d="M610 1091q-166 -18 -261 -75.5t-95 -136.5q0 -50 31 -77.5t86 -27.5q114 0 177.5 70.5t63.5 197.5q0 20 -0.5 30t-1.5 19zM623 807q-55 -67 -135 -103t-173 -36q-110 0 -173.5 49.5t-63.5 134.5q0 120 134 202t398 124v65q0 85 -51 129.5t-149 44.5q-62 0 -110.5 -19.5
t-67.5 -52.5q7 -8 24 -21q37 -26 37 -64q0 -39 -26 -59.5t-74 -20.5q-47 0 -72 25.5t-25 72.5q0 101 91 160t249 59q68 0 128.5 -15t103.5 -42q51 -31 71.5 -75.5t20.5 -150.5v-387q0 -36 10.5 -52.5t34.5 -16.5q19 0 31.5 12.5t18.5 36.5h63v-2q0 -62 -40.5 -98.5
t-107.5 -36.5q-65 0 -102.5 35t-44.5 102z" />
    <glyph glyph-name="ordmasculine" unicode="&#xba;" horiz-adv-x="952" 
d="M477 752q113 0 168 81.5t55 249.5q0 169 -55 251.5t-168 82.5q-114 0 -169.5 -82.5t-55.5 -251.5q0 -168 55.5 -249.5t169.5 -81.5zM477 670q-179 0 -290 113.5t-111 299.5q0 188 109.5 301t291.5 113q181 0 291.5 -113t110.5 -301q0 -185 -111 -299t-291 -114z" />
    <glyph glyph-name="Omega" unicode="&#x3a9;" horiz-adv-x="1569" 
d="M1112 231v-26h311l60 184h61l-117 -389h-505q120 216 181.5 435t61.5 427q0 277 -95.5 418t-283.5 141q-189 0 -284.5 -140t-95.5 -419q0 -209 61 -426t182 -436h-506l-116 389h61l59 -184h312v26q-165 183 -237 335t-72 311q0 267 183 443.5t453 176.5t452.5 -177
t182.5 -443q0 -158 -71.5 -309t-237.5 -337z" />
    <glyph glyph-name="ae" unicode="&#xe6;" horiz-adv-x="1843" 
d="M1016 561v-24q0 -216 78 -333.5t221 -117.5q98 0 167.5 47t129.5 154l96 -78q-72 -122 -170 -182t-223 -60q-140 0 -248.5 51t-194.5 156q-116 -106 -230 -157.5t-230 -51.5q-142 0 -226 71t-84 189q0 172 185.5 290.5t525.5 162.5v108q0 122 -68.5 186t-197.5 64
q-83 0 -151 -29.5t-88 -73.5q8 -9 29 -25q54 -42 54 -105q0 -52 -37.5 -84.5t-97.5 -32.5q-59 0 -94 40.5t-35 109.5q0 139 121.5 228t312.5 89q128 0 222.5 -38.5t158.5 -117.5q70 81 151.5 118.5t184.5 37.5q219 0 344 -154.5t125 -425.5v-12h-731zM1022 680h489
q-3 168 -61.5 256t-167.5 88q-117 0 -184 -89t-76 -255zM813 559q-217 -20 -346 -102.5t-129 -196.5q0 -71 41 -110t115 -39q152 0 236.5 99t84.5 279q0 28 -0.5 43t-1.5 27z" />
    <glyph glyph-name="oslash" unicode="&#xf8;" horiz-adv-x="1270" 
d="M885 866l-428 -721q42 -31 83.5 -45t94.5 -14q152 0 225.5 116.5t73.5 356.5q0 85 -12 159.5t-37 147.5zM383 254l434 723q-43 31 -86.5 45t-97.5 14q-149 0 -224 -119t-75 -354q0 -83 12 -158.5t37 -150.5zM289 96q-96 84 -142.5 197.5t-46.5 265.5q0 268 147 430
t388 162q63 0 125.5 -13.5t128.5 -41.5l143 241h139l-186 -311q92 -82 139 -201t47 -266q0 -266 -148 -429t-388 -163q-63 0 -125 15t-127 45l-168 -283h-139z" />
    <glyph glyph-name="questiondown" unicode="&#xbf;" horiz-adv-x="1147" 
d="M596 893v197h115v-305q-172 -5 -243 -88t-71 -285q0 -167 54.5 -250.5t162.5 -83.5q86 0 150.5 50t64.5 89q0 5 -39.5 46t-39.5 97t32 87.5t88 31.5q65 0 97 -39.5t32 -117.5q0 -154 -113 -257.5t-286 -103.5q-189 0 -303.5 123.5t-114.5 327.5q0 212 103 332t311 149z
M795 1366q0 -57 -40.5 -98t-97.5 -41t-98 40.5t-41 98.5q0 57 40.5 97t98.5 40q57 0 97.5 -40t40.5 -97z" />
    <glyph glyph-name="exclamdown" unicode="&#xa1;" horiz-adv-x="682" 
d="M203 1368q0 57 40 98t97 41t98 -40.5t41 -98.5q0 -57 -40.5 -97t-98.5 -40q-57 0 -97 40t-40 97zM285 1040h106l68 -915q0 -6 1 -15t1 -14q0 -68 -30.5 -101.5t-92.5 -33.5t-92.5 33.5t-30.5 101.5q0 5 1 14t1 15z" />
    <glyph glyph-name="logicalnot" unicode="&#xac;" horiz-adv-x="1706" 
d="M254 860h1198v-502h-137v363h-1061v139z" />
    <glyph glyph-name="radical" unicode="&#x221a;" horiz-adv-x="1305" 
d="M1116 1661h189v-96h-115l-594 -1606h-66l-319 883l-125 -45l-25 80l283 98l256 -709z" />
    <glyph glyph-name="florin" unicode="&#x192;" horiz-adv-x="1147" 
d="M512 991q31 279 132 421t267 142q90 0 148.5 -49t58.5 -123q0 -63 -31.5 -97t-91.5 -34q-46 0 -78 31t-32 74q0 16 11 42.5t11 35.5q0 7 -8.5 11.5t-24.5 4.5q-81 0 -127 -119.5t-48 -339.5h227l-15 -110h-219q-36 -718 -139 -983t-326 -265q-95 0 -153 47t-58 123
q0 60 34 97t89 37q49 0 81 -30.5t32 -76.5q0 -23 -10.5 -48.5t-10.5 -29.5q0 -8 12 -14t29 -6q50 0 89.5 60.5t58.5 166.5q15 89 33 397t43 525h-230l13 110h233z" />
    <glyph glyph-name="approxequal" unicode="&#x2248;" horiz-adv-x="1706" 
d="M1530 586v-156q-105 -73 -199.5 -107t-189.5 -34t-285 67.5t-293 67.5q-82 0 -171.5 -36t-213.5 -122v156q108 73 204 109t183 36q115 0 305 -68.5t273 -68.5q88 0 177 35.5t210 120.5zM1530 954v-155q-105 -73 -199.5 -107.5t-189.5 -34.5t-285 68t-293 68
q-83 0 -171.5 -36t-213.5 -122v156q106 72 202 107.5t185 35.5q116 0 305.5 -67.5t272.5 -67.5q87 0 175 34.5t212 120.5z" />
    <glyph glyph-name="Delta" unicode="&#x2206;" horiz-adv-x="1350" 
d="M602 1174l-389 -957h768zM666 1497h30l600 -1497h-1243z" />
    <glyph glyph-name="guillemotleft" unicode="&#xab;" 
d="M475 553q156 120 288 248.5t138 128.5q11 0 16 -6t5 -19q0 -33 -53 -120t-162 -234q92 -122 150 -220.5t58 -127.5q0 -13 -5 -19t-15 -6q-19 0 -152.5 131.5t-267.5 243.5zM98 553q156 120 288 248.5t138 128.5q12 -1 17 -6.5t6 -18.5q0 -32 -52.5 -117.5t-164.5 -236.5
q92 -122 150.5 -220.5t58.5 -127.5q0 -13 -5 -19t-16 -6q-19 0 -152.5 131.5t-267.5 243.5z" />
    <glyph glyph-name="guillemotright" unicode="&#xbb;" 
d="M924 553q-157 -120 -288.5 -248.5t-137.5 -128.5q-10 0 -15.5 7t-5.5 20q0 33 53 120t162 234q-93 123 -151 220.5t-58 125.5q0 13 5.5 20t15.5 7q19 0 152 -132t268 -245zM545 553q-156 -120 -288 -248.5t-138 -128.5q-10 0 -15.5 7t-5.5 20q0 33 53 120t162 234
q-93 123 -151 220.5t-58 125.5q0 13 5.5 20t15.5 7q18 0 151 -132t269 -245z" />
    <glyph glyph-name="ellipsis" unicode="&#x2026;" horiz-adv-x="2048" 
d="M202 100q0 57 41.5 98.5t98.5 41.5t97 -41t40 -99t-40 -98.5t-97 -40.5t-98.5 41.5t-41.5 97.5zM884 100q0 57 41.5 98.5t98.5 41.5t97 -41t40 -99t-40 -98.5t-97 -40.5t-98.5 41.5t-41.5 97.5zM1568 100q0 57 41.5 98.5t98.5 41.5t97 -41t40 -99t-40 -98.5t-97 -40.5
t-98.5 41.5t-41.5 97.5z" />
    <glyph glyph-name="nonbreakingspace" unicode="&#xa0;" horiz-adv-x="1147" 
 />
    <glyph glyph-name="Agrave" unicode="&#xc0;" horiz-adv-x="1651" 
d="M535 668h499l-241 635zM18 0v141q6 0 15.5 -1t13.5 -1q67 0 107.5 35.5t97.5 171.5l469 1129h244l446 -1164l4 -10q62 -160 195 -160h20l6 -141h-655v141h88q61 0 91 20.5t30 61.5q0 18 -5 43t-14 45l-81 215h-611l-88 -219q-9 -22 -14.5 -47t-5.5 -43q0 -36 30 -56
t84 -20h99v-141h-566zM1001 1620h-74l-301 182q-48 30 -66 51.5t-18 48.5q0 32 22.5 55t53.5 23q24 0 52 -16t55 -45z" />
    <glyph glyph-name="Atilde" unicode="&#xc3;" horiz-adv-x="1651" 
d="M535 668h499l-241 635zM18 0v141q6 0 15.5 -1t13.5 -1q67 0 107.5 35.5t97.5 171.5l469 1129h244l446 -1164l4 -10q62 -160 195 -160h20l6 -141h-655v141h88q61 0 91 20.5t30 61.5q0 18 -5 43t-14 45l-81 215h-611l-88 -219q-9 -22 -14.5 -47t-5.5 -43q0 -36 30 -56
t84 -20h99v-141h-566zM1108 1937q-22 -113 -71.5 -171t-123.5 -58q-12 0 -24.5 1.5t-27.5 4.5l-106 26q-27 7 -37.5 9t-15.5 2q-42 0 -64 -20t-38 -72h-58q22 115 72 174t125 59q9 0 25 -2.5t38 -7.5l109 -27q12 -3 25 -4.5t26 -1.5q34 0 56 22t32 66h58z" />
    <glyph glyph-name="Otilde" unicode="&#xd5;" horiz-adv-x="1835" 
d="M123 741q0 338 222.5 552t572.5 214q351 0 572.5 -214.5t221.5 -557.5t-221.5 -558.5t-572.5 -215.5q-353 0 -574 216.5t-221 563.5zM920 1366q-234 0 -369 -168.5t-135 -462.5t134.5 -462.5t369.5 -168.5q234 0 365.5 166t131.5 465t-131.5 465t-365.5 166zM1201 1937
q-22 -113 -71.5 -171t-123.5 -58q-12 0 -24.5 1.5t-27.5 4.5l-106 26q-27 7 -37.5 9t-15.5 2q-42 0 -64 -20t-38 -72h-58q22 115 72 174t125 59q9 0 25 -2.5t38 -7.5l109 -27q12 -3 25 -4.5t26 -1.5q34 0 56 22t32 66h58z" />
    <glyph glyph-name="OE" unicode="&#x152;" horiz-adv-x="2300" 
d="M1102 332v811q0 118 -48 159t-169 41q-213 0 -341 -165t-128 -443q0 -277 123.5 -435.5t339.5 -158.5q131 0 177 36t46 155zM1051 0h-154q-350 0 -562 202.5t-212 534.5q0 333 211.5 537.5t558.5 204.5q24 0 76.5 -2t81.5 -2h1089v-533h-151l-17 160q-1 10 -2 28
q-19 201 -260 201h-160q-126 0 -166.5 -36.5t-40.5 -151.5v-303h84q116 0 158.5 35t42.5 131v98h146v-680h-146v106q0 96 -43.5 131t-157.5 35h-84v-364q0 -115 40 -153t157 -38h168q146 0 197.5 32.5t64.5 188.5l19 189h151v-551h-1089z" />
    <glyph glyph-name="oe" unicode="&#x153;" horiz-adv-x="1976" 
d="M1158 680h486q-3 170 -61 257t-168 87q-116 0 -182.5 -88.5t-74.5 -255.5zM635 86q152 0 225.5 116.5t73.5 356.5q0 241 -74 358t-225 117q-152 0 -225.5 -117t-73.5 -358q0 -240 73.5 -356.5t225.5 -116.5zM1042 961q78 98 170 145t205 47q214 0 339.5 -156t125.5 -424
v-12h-729v-24q0 -216 78 -333.5t221 -117.5q98 0 167.5 47t129.5 154l96 -78q-76 -126 -174 -184t-233 -58q-123 0 -221.5 46.5t-174.5 140.5q-97 -98 -194.5 -142.5t-212.5 -44.5q-239 0 -387 163t-148 429q0 269 147 431.5t388 162.5q122 0 222 -47t185 -145z" />
    <glyph glyph-name="endash" unicode="&#x2013;" 
d="M1024 633v-133h-1024v133h1024z" />
    <glyph glyph-name="emdash" unicode="&#x2014;" horiz-adv-x="2048" 
d="M2048 500h-2048v133h2048v-133z" />
    <glyph glyph-name="quotedblleft" unicode="&#x201c;" horiz-adv-x="985" 
d="M688 1172q16 3 28.5 4.5t20.5 1.5q60 0 96.5 -37t36.5 -99q0 -61 -39 -99t-102 -38q-75 0 -119.5 51.5t-44.5 139.5q0 139 91.5 259t222.5 146v-84q-88 -37 -133.5 -95t-57.5 -150zM223 1172q15 2 28 4t21 2q61 0 97.5 -37t36.5 -99q0 -61 -39 -99t-103 -38
q-75 0 -119.5 51.5t-44.5 139.5q0 139 91.5 259t222.5 146v-84q-88 -37 -133 -95t-58 -150z" />
    <glyph glyph-name="quotedblright" unicode="&#x201d;" horiz-adv-x="985" 
d="M770 1241q-15 -3 -27.5 -4.5t-21.5 -1.5q-60 0 -96.5 37t-36.5 98t39.5 99t103.5 38q75 0 118.5 -51t43.5 -139q0 -139 -91.5 -259t-221.5 -147v84q87 37 132.5 95.5t57.5 150.5zM305 1241q-15 -3 -27.5 -4.5t-21.5 -1.5q-60 0 -96.5 37t-36.5 98t40 99t103 38
q75 0 118.5 -51t43.5 -139q0 -139 -91.5 -259t-221.5 -147v84q87 37 132.5 95.5t57.5 150.5z" />
    <glyph glyph-name="quoteleft" unicode="&#x2018;" horiz-adv-x="573" 
d="M240 1172q14 2 27 4t22 2q60 0 96.5 -37t36.5 -99q0 -60 -40 -98.5t-103 -38.5q-75 0 -118.5 51.5t-43.5 139.5q0 79 36 161.5t99 145.5q39 39 82.5 63t95.5 35v-84q-88 -37 -133 -95t-57 -150z" />
    <glyph glyph-name="quoteright" unicode="&#x2019;" horiz-adv-x="573" 
d="M344 1241q-15 -3 -27.5 -4.5t-21.5 -1.5q-60 0 -96.5 37t-36.5 98t39 99t102 38q75 0 119.5 -51.5t44.5 -138.5q0 -139 -91.5 -259t-221.5 -147v84q87 37 132.5 95.5t57.5 150.5z" />
    <glyph glyph-name="divide" unicode="&#xf7;" horiz-adv-x="1706" 
d="M854 367q51 0 88 -37t37 -88q0 -52 -36.5 -88.5t-88.5 -36.5q-53 0 -89 36t-36 89q0 51 37 88t88 37zM254 680h1198v-139h-1198v139zM854 1106q51 0 88 -37.5t37 -89.5q0 -51 -36.5 -88t-88.5 -37t-88.5 36.5t-36.5 88.5t37 89.5t88 37.5z" />
    <glyph glyph-name="lozenge" unicode="&#x25ca;" horiz-adv-x="1012" 
d="M506 1409l-385 -817l385 -825l385 825zM506 1653l500 -1061l-500 -1069l-500 1069z" />
    <glyph glyph-name="ydieresis" unicode="&#xff;" horiz-adv-x="1147" 
d="M635 8q-89 -221 -176.5 -309t-210.5 -88q-109 0 -179.5 57t-70.5 146q0 65 39 107t100 42q53 0 87 -31t34 -79q0 -34 -20.5 -62t-20.5 -31q0 -7 16.5 -14.5t34.5 -7.5q77 0 136 74t108 231l-309 766q-50 125 -92.5 159t-118.5 40v110h532v-110q-87 -12 -115 -31t-28 -62
q0 -16 4.5 -36t13.5 -45l215 -535l226 569q6 15 9 30t3 30q0 36 -30 53.5t-111 26.5v110h409v-110q-51 -14 -84 -47.5t-59 -100.5zM643 1427q0 45 33 78t79 33q47 0 80 -32.5t33 -78.5q0 -48 -32.5 -81t-80.5 -33q-47 0 -79.5 33t-32.5 81zM278 1427q0 45 34.5 78t80.5 33
t78 -32t32 -79q0 -49 -31.5 -81.5t-78.5 -32.5q-48 0 -81.5 33t-33.5 81z" />
    <glyph glyph-name="Ydieresis" unicode="&#x178;" horiz-adv-x="1575" 
d="M1135 1159q9 14 15.5 35t6.5 37q0 45 -32 72.5t-85 27.5h-90v144h662v-144q-107 -10 -184 -58.5t-140 -144.5l-373 -577v-223q0 -112 42.5 -149.5t154.5 -37.5h121v-141h-866v141h120q112 0 154.5 38t42.5 153v231l-455 654q-40 58 -91 83t-152 31v144h737v-144h-92
q-59 0 -91 -21.5t-32 -62.5q0 -19 8.5 -39.5t32.5 -56.5l303 -440zM858 1783q0 45 33 78t79 33q47 0 80 -32.5t33 -78.5q0 -48 -32.5 -81t-80.5 -33q-47 0 -79.5 33t-32.5 81zM493 1783q0 45 34.5 78t80.5 33t78 -32t32 -79q0 -49 -31.5 -81.5t-78.5 -32.5q-48 0 -81.5 33
t-33.5 81z" />
    <glyph glyph-name="fraction" unicode="&#x2215;" horiz-adv-x="342" 
d="M-207 -47h-135l889 1554h135z" />
    <glyph glyph-name="currency" unicode="&#xa4;" horiz-adv-x="1147" 
d="M18 946h140q36 262 167.5 411.5t323.5 149.5q110 0 195.5 -57t89.5 -57q24 0 36.5 22.5t16.5 71.5h103l6 -461h-111q-45 173 -125 256.5t-201 83.5q-112 0 -180 -107.5t-86 -312.5h475l-20 -98l-459 -1q-1 -19 -1.5 -42t-0.5 -70q0 -49 0.5 -71.5t1.5 -42.5h426l-20 -101
h-400q19 -220 83.5 -319t187.5 -99q108 0 190 90.5t131 260.5l121 -33q-66 -225 -184 -342t-279 -117q-204 0 -330 144t-157 415h-168l20 101h137q-2 43 -3 68t-1 46q0 20 1 44t3 69h-149z" />
    <glyph glyph-name="guilsinglleft" unicode="&#x2039;" horiz-adv-x="645" 
d="M98 553q156 120 288 248.5t138 128.5q12 -1 17 -6.5t6 -18.5q0 -32 -52.5 -117.5t-164.5 -236.5q92 -122 150.5 -220.5t58.5 -127.5q0 -13 -5 -19t-16 -6q-19 0 -152.5 131.5t-267.5 243.5z" />
    <glyph glyph-name="guilsinglright" unicode="&#x203a;" horiz-adv-x="645" 
d="M545 553q-156 -120 -288 -248.5t-138 -128.5q-10 0 -15.5 7t-5.5 20q0 33 53 120t162 234q-93 123 -151 220.5t-58 125.5q0 13 5.5 20t15.5 7q18 0 151 -132t269 -245z" />
    <glyph glyph-name="fi" unicode="&#xf001;" horiz-adv-x="1343" 
d="M422 317q0 -118 35 -156.5t147 -48.5v-112h-549v113q105 12 137.5 47.5t32.5 156.5v678h-170v123h168q0 221 116 324.5t363 103.5q180 0 279.5 -50t99.5 -138q0 -55 -33 -83t-100 -28q-53 0 -85 26.5t-32 69.5q0 10 5.5 27t5.5 25q0 26 -35 39.5t-105 13.5
q-142 0 -211 -81t-69 -249h717v-801q0 -119 30 -154.5t129 -49.5v-113h-538v113q110 10 144 46t34 158v471q0 127 -40 167t-138 40h-338v-678z" />
    <glyph glyph-name="fl" unicode="&#xf002;" horiz-adv-x="1343" 
d="M422 1118h516v129q-49 2 -78 28t-29 68q0 11 5.5 27.5t5.5 24.5q0 26 -34 39.5t-103 13.5q-145 0 -214 -80.5t-69 -249.5zM422 317q0 -118 35 -156.5t147 -48.5v-112h-549v113q103 12 135.5 44.5t32.5 123.5v36v678h-168v123h168q5 217 111.5 321.5t322.5 104.5
q46 0 140 -10t143 -10q28 0 73 4.5t125 15.5l1 -1227q0 -119 30 -154.5t129 -49.5v-113h-538v113q110 10 144 46t34 158v678h-516v-678z" />
    <glyph glyph-name="daggerdbl" unicode="&#x2021;" 
d="M383 629q50 81 76 168.5t26 175.5v20q-67 -2 -156.5 -45t-131.5 -43q-53 0 -84 29.5t-31 79.5q0 49 33.5 80.5t85.5 31.5q42 0 133 -40t151 -41v22q0 95 -45 200.5t-45 129.5q0 48 33.5 79t83.5 31q53 0 84 -30t31 -78q0 -12 -43 -121t-43 -215v-19h4q66 0 153.5 41
t126.5 41q56 0 85.5 -28.5t29.5 -81.5q0 -54 -30.5 -83.5t-84.5 -29.5q-43 0 -130.5 42t-155.5 46q6 -122 31.5 -209t72.5 -153q-52 -77 -78 -165.5t-26 -187.5v-10q67 2 156.5 45t131.5 43q53 0 83 -29t30 -79t-33.5 -81.5t-85.5 -31.5q-42 0 -132.5 40.5t-149.5 41.5v-22
q0 -95 44 -200.5t44 -129.5q0 -49 -32.5 -80t-82.5 -31q-53 0 -85 30.5t-32 78.5q0 12 44 121t44 215v18h-4q-66 0 -153.5 -40t-126.5 -40q-57 0 -87 28t-30 81t31 82.5t86 29.5q43 0 130.5 -41.5t155.5 -46.5q-6 116 -31 203t-71 158z" />
    <glyph glyph-name="periodcentered" unicode="&#xb7;" horiz-adv-x="573" 
d="M147 735q0 57 41.5 97t98.5 40t97 -39.5t40 -97.5t-40 -98.5t-97 -40.5t-98.5 41t-41.5 98z" />
    <glyph glyph-name="quotesinglbase" unicode="&#x201a;" horiz-adv-x="573" 
d="M309 -35q-16 -3 -28 -4.5t-21 -1.5q-60 0 -96.5 36t-36.5 97q0 62 39 100.5t102 38.5q75 0 119.5 -51t44.5 -139q0 -139 -91.5 -259t-221.5 -147v84q87 37 132.5 95.5t57.5 150.5z" />
    <glyph glyph-name="quotedblbase" unicode="&#x201e;" horiz-adv-x="985" 
d="M276 -35q-16 -3 -27 -4.5t-20 -1.5q-60 0 -96.5 36t-36.5 97q0 62 39.5 100.5t102.5 38.5q74 0 117.5 -51t43.5 -139q0 -140 -90.5 -259.5t-220.5 -146.5v84q87 37 131.5 95t56.5 151zM743 -35q-15 -3 -27.5 -4.5t-21.5 -1.5q-60 0 -96.5 36t-36.5 97q0 62 39.5 100.5
t101.5 38.5q76 0 120 -51t44 -139q0 -79 -36 -162t-99 -145q-39 -39 -82.5 -63.5t-95.5 -35.5v84q88 37 133 95.5t57 150.5z" />
    <glyph glyph-name="perthousand" unicode="&#x2030;" horiz-adv-x="2701" 
d="M1712 532q0 85 -38 136t-99 51q-56 0 -119 -59t-119 -164q-43 -82 -67.5 -169t-24.5 -151t34.5 -99.5t94.5 -35.5q122 0 230 157t108 334zM1782 524q0 -218 -136.5 -390.5t-308.5 -172.5q-122 0 -198 83t-76 218q0 204 146.5 370.5t320.5 166.5q123 0 187.5 -70.5
t64.5 -204.5zM737 1298q-43 25 -82 51.5t-73 55.5q-120 -57 -213 -228t-93 -319q0 -63 35.5 -99t96.5 -36q121 0 228 157.5t107 333.5q0 16 -1.5 36t-4.5 48zM1341 1522h97l-875 -1579h-121l772 1392q-59 -42 -124.5 -65t-124.5 -23q-38 0 -75.5 7t-78.5 22q0 -7 1 -20.5
t1 -20.5q0 -243 -134.5 -418.5t-311.5 -175.5q-124 0 -200.5 82.5t-76.5 216.5q0 202 146.5 369.5t316.5 167.5q72 0 125.5 -25.5t122.5 -95.5q46 -18 83.5 -26.5t71.5 -8.5q102 0 204.5 53t180.5 148zM2540 532q0 85 -38 136t-100 51q-56 0 -118.5 -59t-118.5 -164
q-43 -82 -67.5 -169t-24.5 -151t34 -99.5t95 -35.5q121 0 229.5 157t108.5 334zM2609 524q0 -218 -136.5 -390.5t-307.5 -172.5q-123 0 -200 83t-77 218q0 203 147.5 370t321.5 167q123 0 187.5 -70.5t64.5 -204.5z" />
    <glyph glyph-name="Acircumflex" unicode="&#xc2;" horiz-adv-x="1651" 
d="M535 668h499l-241 635zM18 0v141q6 0 15.5 -1t13.5 -1q67 0 107.5 35.5t97.5 171.5l469 1129h244l446 -1164l4 -10q62 -160 195 -160h20l6 -141h-655v141h88q61 0 91 20.5t30 61.5q0 18 -5 43t-14 45l-81 215h-611l-88 -219q-9 -22 -14.5 -47t-5.5 -43q0 -36 30 -56
t84 -20h99v-141h-566zM530 1620l227 348h134l229 -348h-74l-221 194l-221 -194h-74z" />
    <glyph glyph-name="Ecircumflex" unicode="&#xca;" horiz-adv-x="1597" 
d="M559 332q0 -116 38.5 -153.5t150.5 -37.5h296q149 0 197 38t55 183l9 183h155v-545h-1386v141h82q95 0 133.5 40t38.5 151v811q0 111 -36 149.5t-136 38.5h-82v144h1362v-533h-148l-10 170q-9 147 -56.5 183t-193.5 36h-270q-120 0 -159.5 -36t-39.5 -152v-303h148
q104 0 145.5 29.5t52.5 135.5v109h131v-686h-131v102q-12 109 -54 137.5t-144 28.5h-148v-364zM516 1620l227 348h134l229 -348h-74l-221 194l-221 -194h-74z" />
    <glyph glyph-name="Aacute" unicode="&#xc1;" horiz-adv-x="1651" 
d="M535 668h499l-241 635zM18 0v141q6 0 15.5 -1t13.5 -1q67 0 107.5 35.5t97.5 171.5l469 1129h244l446 -1164l4 -10q62 -160 195 -160h20l6 -141h-655v141h88q61 0 91 20.5t30 61.5q0 18 -5 43t-14 45l-81 215h-611l-88 -219q-9 -22 -14.5 -47t-5.5 -43q0 -36 30 -56
t84 -20h99v-141h-566zM649 1620l276 299q27 29 55 45t52 16q31 0 53.5 -23t22.5 -55q0 -27 -18 -48.5t-66 -51.5l-301 -182h-74z" />
    <glyph glyph-name="Edieresis" unicode="&#xcb;" horiz-adv-x="1597" 
d="M559 332q0 -116 38.5 -153.5t150.5 -37.5h296q149 0 197 38t55 183l9 183h155v-545h-1386v141h82q95 0 133.5 40t38.5 151v811q0 111 -36 149.5t-136 38.5h-82v144h1362v-533h-148l-10 170q-9 147 -56.5 183t-193.5 36h-270q-120 0 -159.5 -36t-39.5 -152v-303h148
q104 0 145.5 29.5t52.5 135.5v109h131v-686h-131v102q-12 109 -54 137.5t-144 28.5h-148v-364zM881 1783q0 45 33 78t79 33q47 0 80 -32.5t33 -78.5q0 -48 -32.5 -81t-80.5 -33q-47 0 -79.5 33t-32.5 81zM516 1783q0 45 34.5 78t80.5 33t78 -32t32 -79q0 -49 -31.5 -81.5
t-78.5 -32.5q-48 0 -81.5 33t-33.5 81z" />
    <glyph glyph-name="Egrave" unicode="&#xc8;" horiz-adv-x="1597" 
d="M559 332q0 -116 38.5 -153.5t150.5 -37.5h296q149 0 197 38t55 183l9 183h155v-545h-1386v141h82q95 0 133.5 40t38.5 151v811q0 111 -36 149.5t-136 38.5h-82v144h1362v-533h-148l-10 170q-9 147 -56.5 183t-193.5 36h-270q-120 0 -159.5 -36t-39.5 -152v-303h148
q104 0 145.5 29.5t52.5 135.5v109h131v-686h-131v102q-12 109 -54 137.5t-144 28.5h-148v-364zM987 1620h-74l-301 182q-48 30 -66 51.5t-18 48.5q0 32 22.5 55t53.5 23q24 0 52 -16t55 -45z" />
    <glyph glyph-name="Iacute" unicode="&#xcd;" horiz-adv-x="887" 
d="M74 1475h739v-144h-82q-98 0 -135 -38t-37 -150v-811q0 -112 37 -151.5t135 -39.5h82v-141h-739v141h82q98 0 135 39.5t37 161.5v801q0 111 -36.5 149.5t-135.5 38.5h-82v144zM268 1620l276 299q27 29 55 45t52 16q31 0 53.5 -23t22.5 -55q0 -27 -18 -48.5t-66 -51.5
l-301 -182h-74z" />
    <glyph glyph-name="Icircumflex" unicode="&#xce;" horiz-adv-x="887" 
d="M74 1475h739v-144h-82q-98 0 -135 -38t-37 -150v-811q0 -112 37 -151.5t135 -39.5h82v-141h-739v141h82q98 0 135 39.5t37 161.5v801q0 111 -36.5 149.5t-135.5 38.5h-82v144zM149 1620l227 348h134l229 -348h-74l-221 194l-221 -194h-74z" />
    <glyph glyph-name="Idieresis" unicode="&#xcf;" horiz-adv-x="887" 
d="M74 1475h739v-144h-82q-98 0 -135 -38t-37 -150v-811q0 -112 37 -151.5t135 -39.5h82v-141h-739v141h82q98 0 135 39.5t37 161.5v801q0 111 -36.5 149.5t-135.5 38.5h-82v144zM514 1783q0 45 33 78t79 33q47 0 80 -32.5t33 -78.5q0 -48 -32.5 -81t-80.5 -33
q-47 0 -79.5 33t-32.5 81zM149 1783q0 45 34.5 78t80.5 33t78 -32t32 -79q0 -49 -31.5 -81.5t-78.5 -32.5q-48 0 -81.5 33t-33.5 81z" />
    <glyph glyph-name="Igrave" unicode="&#xcc;" horiz-adv-x="887" 
d="M74 1475h739v-144h-82q-98 0 -135 -38t-37 -150v-811q0 -112 37 -151.5t135 -39.5h82v-141h-739v141h82q98 0 135 39.5t37 161.5v801q0 111 -36.5 149.5t-135.5 38.5h-82v144zM620 1620h-74l-301 182q-48 30 -66 51.5t-18 48.5q0 32 22.5 55t53.5 23q24 0 52 -16t55 -45z
" />
    <glyph glyph-name="Oacute" unicode="&#xd3;" horiz-adv-x="1835" 
d="M123 741q0 338 222.5 552t572.5 214q351 0 572.5 -214.5t221.5 -557.5t-221.5 -558.5t-572.5 -215.5q-353 0 -574 216.5t-221 563.5zM920 1366q-234 0 -369 -168.5t-135 -462.5t134.5 -462.5t369.5 -168.5q234 0 365.5 166t131.5 465t-131.5 465t-365.5 166zM742 1620
l276 299q27 29 55 45t52 16q31 0 53.5 -23t22.5 -55q0 -27 -18 -48.5t-66 -51.5l-301 -182h-74z" />
    <glyph glyph-name="Ocircumflex" unicode="&#xd4;" horiz-adv-x="1835" 
d="M123 741q0 338 222.5 552t572.5 214q351 0 572.5 -214.5t221.5 -557.5t-221.5 -558.5t-572.5 -215.5q-353 0 -574 216.5t-221 563.5zM920 1366q-234 0 -369 -168.5t-135 -462.5t134.5 -462.5t369.5 -168.5q234 0 365.5 166t131.5 465t-131.5 465t-365.5 166zM623 1620
l227 348h134l229 -348h-74l-221 194l-221 -194h-74z" />
    <glyph glyph-name="apple" unicode="&#xf000;" horiz-adv-x="1618" 
d="M836 1216q-1 6 -1.5 14t-0.5 23q0 124 95 229.5t236 131.5q1 -10 1.5 -23t0.5 -39q0 -131 -103.5 -234.5t-203.5 -103.5h-8q-3 0 -7.5 1t-8.5 1zM1505 403q-114 -247 -205 -342.5t-204 -95.5q-50 0 -131.5 33t-122.5 33q-45 0 -131 -33t-127 -33q-64 0 -128.5 44
t-129.5 132q-102 140 -157.5 295.5t-55.5 300.5q0 219 125 356.5t323 137.5q68 0 155 -34t124 -34q34 0 121.5 35t152.5 35q110 0 198 -40t161 -124q-102 -65 -151.5 -145.5t-49.5 -182.5q0 -113 60 -200t173 -138z" />
    <glyph glyph-name="Ograve" unicode="&#xd2;" horiz-adv-x="1835" 
d="M123 741q0 338 222.5 552t572.5 214q351 0 572.5 -214.5t221.5 -557.5t-221.5 -558.5t-572.5 -215.5q-353 0 -574 216.5t-221 563.5zM920 1366q-234 0 -369 -168.5t-135 -462.5t134.5 -462.5t369.5 -168.5q234 0 365.5 166t131.5 465t-131.5 465t-365.5 166zM1094 1620
h-74l-301 182q-48 30 -66 51.5t-18 48.5q0 32 22.5 55t53.5 23q24 0 52 -16t55 -45z" />
    <glyph glyph-name="Uacute" unicode="&#xda;" horiz-adv-x="1726" 
d="M49 1331v144h739v-144h-86q-95 0 -131 -39.5t-36 -156.5v-525q0 -251 88 -360t284 -109q191 0 279 112t88 357v525q0 123 -37 159.5t-131 36.5h-84v144h668v-144h-84q-96 0 -132 -35t-36 -170v-516q0 -337 -144 -494t-448 -157q-136 0 -244 39.5t-180 116.5
q-64 68 -91.5 153.5t-27.5 249.5v76v541q0 118 -34.5 157t-137.5 39h-82zM703 1620l276 299q27 29 55 45t52 16q31 0 53.5 -23t22.5 -55q0 -27 -18 -48.5t-66 -51.5l-301 -182h-74z" />
    <glyph glyph-name="Ucircumflex" unicode="&#xdb;" horiz-adv-x="1726" 
d="M49 1331v144h739v-144h-86q-95 0 -131 -39.5t-36 -156.5v-525q0 -251 88 -360t284 -109q191 0 279 112t88 357v525q0 123 -37 159.5t-131 36.5h-84v144h668v-144h-84q-96 0 -132 -35t-36 -170v-516q0 -337 -144 -494t-448 -157q-136 0 -244 39.5t-180 116.5
q-64 68 -91.5 153.5t-27.5 249.5v76v541q0 118 -34.5 157t-137.5 39h-82zM584 1620l227 348h134l229 -348h-74l-221 194l-221 -194h-74z" />
    <glyph glyph-name="Ugrave" unicode="&#xd9;" horiz-adv-x="1726" 
d="M49 1331v144h739v-144h-86q-95 0 -131 -39.5t-36 -156.5v-525q0 -251 88 -360t284 -109q191 0 279 112t88 357v525q0 123 -37 159.5t-131 36.5h-84v144h668v-144h-84q-96 0 -132 -35t-36 -170v-516q0 -337 -144 -494t-448 -157q-136 0 -244 39.5t-180 116.5
q-64 68 -91.5 153.5t-27.5 249.5v76v541q0 118 -34.5 157t-137.5 39h-82zM1055 1620h-74l-301 182q-48 30 -66 51.5t-18 48.5q0 32 22.5 55t53.5 23q24 0 52 -16t55 -45z" />
    <glyph glyph-name="dotlessi" unicode="&#x131;" horiz-adv-x="631" 
d="M424 317q0 -122 34 -158t144 -46v-113h-567v112q118 8 154 43.5t36 161.5v469q0 127 -36.5 162.5t-153.5 43.5v122q15 0 45.5 -1t44.5 -1q79 0 152.5 5t146.5 16v-816z" />
    <glyph glyph-name="circumflex" unicode="&#x2c6;" 
d="M217 1264l227 348h134l229 -348h-74l-221 194l-221 -194h-74z" />
    <glyph glyph-name="tilde" unicode="&#x2dc;" 
d="M795 1581q-22 -113 -71.5 -171t-123.5 -58q-12 0 -24.5 1.5t-27.5 4.5l-106 26q-27 7 -37.5 9t-15.5 2q-42 0 -64 -20t-38 -72h-58q22 115 72 174t125 59q9 0 25 -2.5t38 -7.5l109 -27q12 -3 25 -4.5t26 -1.5q34 0 56 22t32 66h58z" />
    <glyph glyph-name="macron" unicode="&#xaf;" 
d="M242 1356v141h540v-141h-540z" />
    <glyph glyph-name="breve" unicode="&#x2d8;" 
d="M211 1577h65q18 -71 72.5 -102t163.5 -31q107 0 162 31.5t71 101.5h66q-20 -136 -96.5 -207.5t-202.5 -71.5t-203 71t-98 208z" />
    <glyph glyph-name="dotaccent" unicode="&#x2d9;" 
d="M395 1427q0 48 35 83.5t82 35.5q48 0 83.5 -35.5t35.5 -83.5q0 -50 -34 -84t-85 -34q-50 0 -83.5 33.5t-33.5 84.5z" />
    <glyph glyph-name="ring" unicode="&#x2da;" 
d="M371 1491q0 -59 41 -100t100 -41t100 41t41 100q0 60 -41 101.5t-100 41.5t-100 -42t-41 -101zM264 1491q0 103 72 175.5t176 72.5t176 -72.5t72 -175.5q0 -105 -72 -176.5t-176 -71.5t-176 71.5t-72 176.5z" />
    <glyph glyph-name="cedilla" unicode="&#xb8;" 
d="M268 -379l39 90q59 -37 119.5 -57.5t112.5 -20.5q56 0 83 22t27 69q0 43 -27.5 64.5t-82.5 21.5q-4 0 -16.5 -1.5t-43.5 -4.5v196h66v-115q16 2 31.5 3t37.5 1q81 0 130 -45.5t49 -119.5q0 -84 -59.5 -131.5t-166.5 -47.5q-58 0 -128.5 18t-170.5 58z" />
    <glyph glyph-name="hungarumlaut" unicode="&#x2dd;" 
d="M567 1264l174 282q25 39 48.5 57.5t50.5 18.5q31 0 51 -20.5t20 -53.5q0 -21 -15 -44.5t-48 -51.5l-221 -188h-60zM322 1264l133 274q20 44 43.5 65t52.5 21q28 0 50 -22.5t22 -51.5q0 -18 -11 -37t-45 -55l-184 -194h-61z" />
    <glyph glyph-name="ogonek" unicode="&#x2db;" 
d="M678 35q-83 -63 -128.5 -130.5t-45.5 -125.5q0 -59 24 -92t68 -33q36 0 65.5 17t57.5 55l29 -17q-37 -75 -94 -116.5t-126 -41.5q-71 0 -114 42.5t-43 111.5q0 84 64 165t196 165h47z" />
    <glyph glyph-name="caron" unicode="&#x2c7;" 
d="M217 1612h74l221 -195l221 195h74l-229 -348h-134z" />
    <glyph glyph-name="Lslash" unicode="&#x141;" horiz-adv-x="1497" 
d="M336 602l-336 -235v165l336 236v375q0 113 -35.5 150.5t-153.5 37.5h-65v144h758v-144h-90q-109 0 -145 -38t-36 -150v-240l369 256v-166l-369 -258v-403q0 -117 38 -154t149 -37h243q174 0 222 39.5t59 190.5l16 215h152v-586h-1366v141h84q94 0 132 39t38 152v270z" />
    <glyph glyph-name="lslash" unicode="&#x142;" horiz-adv-x="649" 
d="M236 657l-236 -159v145l236 160v383q0 125 -37 161t-158 44v120q13 0 38.5 -1t39.5 -1q75 0 154 6t161 17v-619l219 154v-145l-219 -154v-451q0 -123 35.5 -159.5t151.5 -44.5v-113h-580v112q120 8 157.5 44t37.5 161v340z" />
    <glyph glyph-name="Scaron" unicode="&#x160;" horiz-adv-x="1475" 
d="M256 0h-123v647h141q55 -252 214 -397.5t380 -145.5q136 0 216.5 72.5t80.5 192.5q0 117 -80.5 181t-365.5 124q-319 66 -436 161t-117 267q0 187 133.5 296t364.5 109q123 0 262 -55t155 -55q26 0 44 23.5t20 61.5l133 1v-527h-133q-52 206 -169 309t-298 103
q-136 0 -217.5 -59.5t-81.5 -157.5q0 -166 397 -251q41 -9 61 -13q311 -69 426 -172.5t115 -294.5q0 -202 -140.5 -330.5t-360.5 -128.5q-181 0 -356.5 88t-182.5 88q-35 0 -54.5 -32t-27.5 -105zM442 1968h74l221 -195l221 195h74l-229 -348h-134z" />
    <glyph glyph-name="scaron" unicode="&#x161;" horiz-adv-x="1042" 
d="M197 -33h-95v475h111q42 -164 145.5 -262t229.5 -98q84 0 137 45.5t53 116.5q0 66 -50 116.5t-183 110.5q-263 117 -337.5 194.5t-74.5 190.5q0 130 94 213.5t240 83.5q87 0 177.5 -43t94.5 -43q22 0 36.5 22.5t19.5 61.5h100v-373h-109q-48 125 -127.5 190.5
t-181.5 65.5q-72 0 -116 -37t-44 -96q0 -93 219 -191q43 -19 66 -30q215 -101 291 -187t76 -208q0 -138 -103 -229t-260 -91q-130 0 -281 82q-42 23 -53 23q-26 0 -43.5 -23.5t-31.5 -79.5zM227 1612h74l221 -195l221 195h74l-229 -348h-134z" />
    <glyph glyph-name="Zcaron" unicode="&#x17d;" horiz-adv-x="1485" 
d="M600 1331q-188 0 -245.5 -44.5t-69.5 -192.5l-13 -146h-131l19 527h1175v-144l-981 -1190h510q193 0 264.5 53.5t79.5 186.5l15 231h141v-612h-1249v186l929 1145h-444zM448 1968h74l221 -195l221 195h74l-229 -348h-134z" />
    <glyph glyph-name="zcaron" unicode="&#x17e;" horiz-adv-x="1100" 
d="M84 0v147l670 852h-297q-144 0 -180 -31t-44 -139l-8 -143h-112v432h880v-119l-688 -880h340q138 0 174.5 44.5t48.5 190.5l13 133h112v-487h-909zM256 1612h74l221 -195l221 195h74l-229 -348h-134z" />
    <glyph glyph-name="brokenbar" unicode="&#xa6;" 
d="M438 408h150v-758h-150v758zM438 1432h150v-758h-150v758z" />
    <glyph glyph-name="Eth" unicode="&#xd0;" horiz-adv-x="1804" 
d="M569 1143v-309h412v-134h-412v-368q0 -126 50 -162.5t202 -36.5q289 0 430.5 148.5t141.5 453.5q0 306 -139 456t-418 150q-166 0 -216.5 -35t-50.5 -163zM88 141h80q92 0 130 39.5t38 151.5v368h-326v134h326v309q0 111 -34.5 149.5t-133.5 38.5h-80v144h729
q188 0 310.5 -26t218.5 -83q164 -98 255 -263t91 -368q0 -208 -89.5 -374.5t-248.5 -258.5q-93 -53 -225 -77.5t-332 -24.5h-709v141z" />
    <glyph glyph-name="eth" unicode="&#xf0;" horiz-adv-x="1270" 
d="M729 1321q227 -210 334.5 -405.5t107.5 -397.5q0 -247 -148 -399t-388 -152q-239 0 -387 152t-148 399q0 242 141 394.5t361 152.5q42 0 83 -9t83 -28q-45 69 -88 124.5t-88 104.5l-336 -155l-45 102l301 139q-29 35 -62 68.5t-69 65.5l61 69q54 -37 102.5 -73t94.5 -72
l297 137l49 -100zM635 86q152 0 225.5 106t73.5 326q0 218 -74 325t-225 107q-152 0 -225.5 -106.5t-73.5 -325.5q0 -220 73.5 -326t225.5 -106z" />
    <glyph glyph-name="Yacute" unicode="&#xdd;" horiz-adv-x="1575" 
d="M1135 1159q9 14 15.5 35t6.5 37q0 45 -32 72.5t-85 27.5h-90v144h662v-144q-107 -10 -184 -58.5t-140 -144.5l-373 -577v-223q0 -112 42.5 -149.5t154.5 -37.5h121v-141h-866v141h120q112 0 154.5 38t42.5 153v231l-455 654q-40 58 -91 83t-152 31v144h737v-144h-92
q-59 0 -91 -21.5t-32 -62.5q0 -19 8.5 -39.5t32.5 -56.5l303 -440zM612 1620l276 299q27 29 55 45t52 16q31 0 53.5 -23t22.5 -55q0 -27 -18 -48.5t-66 -51.5l-301 -182h-74z" />
    <glyph glyph-name="yacute" unicode="&#xfd;" horiz-adv-x="1147" 
d="M635 8q-89 -221 -176.5 -309t-210.5 -88q-109 0 -179.5 57t-70.5 146q0 65 39 107t100 42q53 0 87 -31t34 -79q0 -34 -20.5 -62t-20.5 -31q0 -7 16.5 -14.5t34.5 -7.5q77 0 136 74t108 231l-309 766q-50 125 -92.5 159t-118.5 40v110h532v-110q-87 -12 -115 -31t-28 -62
q0 -16 4.5 -36t13.5 -45l215 -535l226 569q6 15 9 30t3 30q0 36 -30 53.5t-111 26.5v110h409v-110q-51 -14 -84 -47.5t-59 -100.5zM397 1264l276 299q27 29 55 45t52 16q31 0 53.5 -23t22.5 -55q0 -27 -18 -48.5t-66 -51.5l-301 -182h-74z" />
    <glyph glyph-name="Thorn" unicode="&#xde;" horiz-adv-x="1507" 
d="M866 479q172 0 261.5 68t89.5 198q0 146 -93 210.5t-305 64.5q-183 0 -221.5 -36.5t-38.5 -152.5v-352h307zM328 1143q0 102 -32.5 145t-107.5 43h-49h-65v144h739v-144h-119q-68 0 -101.5 -40.5t-33.5 -123.5v-8h359q276 0 422.5 -107t146.5 -311q0 -127 -66 -220
t-188 -138q-61 -22 -160.5 -31.5t-271.5 -9.5h-242v-53q0 -76 43.5 -112t136.5 -36h74v-141h-739v141h73q102 0 141.5 38.5t39.5 152.5v811z" />
    <glyph glyph-name="thorn" unicode="&#xfe;" horiz-adv-x="1382" 
d="M426 -61q0 -126 36 -162.5t150 -44.5v-111h-559v111q107 11 140.5 48t33.5 159v1247q0 124 -37 160.5t-157 44.5v120q13 0 38.5 -1t37.5 -1q74 0 151 6t156 17v-619q77 120 177 180t224 60q208 0 337.5 -163.5t129.5 -430.5q0 -266 -135.5 -429t-353.5 -163
q-112 0 -200.5 47.5t-168.5 149.5v-225zM748 104q144 0 221.5 115.5t77.5 331.5q0 217 -76.5 330.5t-222.5 113.5q-147 0 -227.5 -115.5t-80.5 -328.5q0 -208 82.5 -327.5t225.5 -119.5z" />
    <glyph glyph-name="minus" unicode="&#x2212;" horiz-adv-x="1706" 
d="M254 682h1198v-141h-1198v141z" />
    <glyph glyph-name="multiply" unicode="&#xd7;" horiz-adv-x="1706" 
d="M391 1178l469 -469l469 469l98 -99l-469 -469l469 -469l-98 -96l-469 467l-469 -467l-98 96l469 469l-469 469z" />
    <glyph glyph-name="onesuperior" unicode="&#xb9;" horiz-adv-x="758" 
d="M455 764v-2q0 -61 25.5 -80.5t90.5 -19.5h52v-74h-486v74h53q68 0 95.5 18t27.5 84v461q0 64 -25.5 84t-90.5 20h-52v70q89 10 143 30t85 54h82v-719z" />
    <glyph glyph-name="twosuperior" unicode="&#xb2;" horiz-adv-x="758" 
d="M57 588v119l262 235q96 84 140.5 157t44.5 144q0 83 -49 130.5t-136 47.5q-55 0 -97.5 -22.5t-53.5 -57.5q58 -16 83 -42t25 -70q0 -38 -27.5 -62t-72.5 -24q-53 0 -88 36t-35 93q0 96 84 158.5t217 62.5q138 0 225 -69t87 -179q0 -64 -37 -128t-113 -132
q-19 -17 -135.5 -108.5t-200.5 -169.5h275q52 0 77 14t31 47l19 104h82l-11 -284h-596z" />
    <glyph glyph-name="threesuperior" unicode="&#xb3;" horiz-adv-x="758" 
d="M242 1114h22q103 0 156 40.5t53 119.5q0 73 -39 112t-110 39q-44 0 -82.5 -15t-38.5 -26q0 -2 26.5 -28t26.5 -58q0 -35 -26.5 -57t-67.5 -22q-44 0 -70 27t-26 71q0 74 77 125t195 51q126 0 211.5 -64.5t85.5 -158.5q0 -71 -52.5 -120t-158.5 -77q114 -24 176 -89
t62 -161q0 -114 -90 -186t-234 -72q-120 0 -201.5 54.5t-81.5 132.5q0 51 31 83.5t80 32.5q39 0 64.5 -22.5t25.5 -57.5q0 -41 -31.5 -70.5l-31.5 -29.5q0 -16 43 -32.5t100 -16.5q78 0 123 48.5t45 133.5q0 105 -60 160t-174 55q-5 0 -14 -1t-14 -1v80z" />
    <glyph glyph-name="onequarter" unicode="&#xbc;" horiz-adv-x="1788" 
d="M1479 313v381l-312 -381h312zM1751 70v-70h-420v70h43q56 0 79.5 18.5t23.5 77.5v61h-385v103l417 514h95v-531h147v-86h-147v-67q0 -55 22.5 -72.5t77.5 -17.5h47zM516 -47h-135l889 1554h135zM434 813v-4q0 -56 25 -74t86 -18h49v-70h-465v70h51q65 0 92 17t27 79v430
q0 59 -24.5 77.5t-86.5 18.5h-51v66q85 8 136.5 27t80.5 51h80v-670z" />
    <glyph glyph-name="onehalf" unicode="&#xbd;" horiz-adv-x="1788" 
d="M1118 0v111l252 219q92 80 134 148t42 134q0 77 -47 121.5t-129 44.5q-52 0 -93.5 -20.5t-51.5 -52.5q56 -17 80 -41.5t24 -65.5q0 -35 -26 -57.5t-68 -22.5q-51 0 -85 34t-34 87q0 89 80.5 147t206.5 58q131 0 215 -64t84 -166q0 -60 -35 -119.5t-108 -123.5
q-17 -14 -128.5 -100t-193.5 -160h262q50 0 74 13t31 44l16 96h78l-10 -264h-570zM516 -47h-135l889 1554h135zM434 813v-4q0 -56 25 -74t86 -18h49v-70h-465v70h51q65 0 92 17t27 79v430q0 59 -24.5 77.5t-86.5 18.5h-51v66q85 8 136.5 27t80.5 51h80v-670z" />
    <glyph glyph-name="threequarters" unicode="&#xbe;" horiz-adv-x="1788" 
d="M1479 313v381l-312 -381h312zM1751 70v-70h-420v70h43q56 0 79.5 18.5t23.5 77.5v61h-385v103l417 514h95v-531h147v-86h-147v-67q0 -55 22.5 -72.5t77.5 -17.5h47zM516 -47h-135l889 1554h135zM231 1139h21q99 0 150 38t51 111q0 68 -37.5 105t-106.5 37
q-41 0 -77.5 -15t-36.5 -24q0 -3 25.5 -27t25.5 -53q0 -32 -26 -54t-64 -22q-43 0 -69 26t-26 68q0 69 74 115.5t189 46.5q120 0 200 -59.5t80 -147.5q0 -66 -49.5 -112t-148.5 -72q108 -21 167.5 -82t59.5 -150q0 -108 -86 -175.5t-223 -67.5q-116 0 -193.5 51.5
t-77.5 124.5q0 47 29.5 77.5t75.5 30.5q38 0 63 -21t25 -54q0 -38 -32 -65t-32 -30q0 -13 42.5 -28t94.5 -15q75 0 117.5 44.5t42.5 123.5q0 99 -56 150t-165 51h-27v74z" />
    <glyph glyph-name="franc" unicode="&#x20a3;" horiz-adv-x="2410" 
d="M559 332v-43q0 -79 43 -113.5t146 -34.5h104v-141h-778v141h82q95 0 133.5 40t38.5 151v811q0 111 -35.5 149.5t-136.5 38.5h-82v144h1345v-580h-149l-10 221q-7 144 -55 179.5t-195 35.5h-252q-121 0 -160 -36.5t-39 -151.5v-303h133q105 0 146 29.5t47 136.5l4 114h131
v-686h-131l-4 96q-6 107 -47 136.5t-146 29.5h-133v-364zM1548 0v113q107 11 139.5 47t32.5 157v469q0 122 -32.5 158t-139.5 47v123q13 0 37.5 -1t36.5 -1q66 0 137.5 5t151.5 16v-256q84 146 152 203t151 57t135.5 -53t52.5 -136q0 -71 -36.5 -112t-100.5 -41
q-56 0 -89.5 32t-33.5 84q0 29 9.5 51.5t24.5 35.5q-5 4 -13 7t-17 3q-76 0 -151.5 -155.5t-75.5 -354.5v-181q0 -129 40 -165t171 -40v-112h-582z" />
    <glyph glyph-name="Gbreve" unicode="&#x11e;" horiz-adv-x="1886" 
d="M1407 178q-94 -104 -231.5 -160.5t-294.5 -56.5q-338 0 -548 213.5t-210 560.5q0 175 57.5 317t171.5 251q103 96 241 150t281 54q167 0 334.5 -70.5t169.5 -70.5q28 0 43.5 28.5t24.5 96.5h127l-2 -545h-119q-64 197 -207 306.5t-334 109.5q-236 0 -368.5 -165.5
t-132.5 -461.5q0 -294 132.5 -462.5t360.5 -168.5q212 0 340.5 104.5t128.5 278.5q0 99 -40.5 137t-157.5 38h-76v143h731v-143q-153 -6 -194.5 -44.5t-41.5 -154.5v-463h-114zM643 1933h65q18 -71 72.5 -102t163.5 -31q107 0 162 31.5t71 101.5h66q-20 -136 -96.5 -207.5
t-202.5 -71.5t-203 71t-98 208z" />
    <glyph glyph-name="gbreve" unicode="&#x11f;" horiz-adv-x="1237" 
d="M563 506q109 0 163 67.5t54 202.5t-54.5 204t-162.5 69q-106 0 -159.5 -68.5t-53.5 -204.5q0 -137 52.5 -203.5t160.5 -66.5zM368 59q-46 -40 -69 -78t-23 -75q0 -85 83.5 -131.5t236.5 -46.5q190 0 293.5 52.5t103.5 147.5q0 61 -52 92t-155 31h-133q-52 0 -112.5 1.5
t-172.5 6.5zM287 88q-79 23 -120.5 72.5t-41.5 120.5q0 64 38 121.5t107 97.5q-74 57 -109.5 125.5t-35.5 154.5q0 168 120.5 272.5t313.5 104.5q113 0 197 -30.5t151 -96.5q86 86 124.5 107.5t80.5 21.5q63 0 98 -43.5t35 -122.5q0 -54 -24.5 -82t-71.5 -28q-34 0 -55 21
t-21 54q0 12 5 34.5t5 33.5q0 15 -4.5 22t-13.5 7q-27 0 -49.5 -18t-57.5 -68q25 -48 36.5 -92.5t11.5 -92.5q0 -173 -117.5 -275.5t-317.5 -102.5q-62 0 -115 9t-96 27q-49 -29 -72.5 -56.5t-23.5 -55.5q0 -49 80.5 -71t273.5 -23q22 -1 63 -1q197 -2 259 -18
q96 -23 147.5 -88.5t51.5 -163.5q0 -163 -149.5 -258.5t-407.5 -95.5q-221 0 -346 69t-125 189q0 60 36 107t140 112zM317 1577h65q18 -71 72.5 -102t163.5 -31q107 0 162 31.5t71 101.5h66q-20 -136 -96.5 -207.5t-202.5 -71.5t-203 71t-98 208z" />
    <glyph glyph-name="Idotaccent" unicode="&#x130;" horiz-adv-x="887" 
d="M74 1475h739v-144h-82q-98 0 -135 -38t-37 -150v-811q0 -112 37 -151.5t135 -39.5h82v-141h-739v141h82q98 0 135 39.5t37 161.5v801q0 111 -36.5 149.5t-135.5 38.5h-82v144zM327 1783q0 48 35 83.5t82 35.5q48 0 83.5 -35.5t35.5 -83.5q0 -50 -34 -84t-85 -34
q-50 0 -83.5 33.5t-33.5 84.5z" />
    <glyph glyph-name="Scedilla" unicode="&#x15e;" horiz-adv-x="1475" 
d="M256 0h-123v647h141q55 -252 214 -397.5t380 -145.5q136 0 216.5 72.5t80.5 192.5q0 117 -80.5 181t-365.5 124q-319 66 -436 161t-117 267q0 187 133.5 296t364.5 109q123 0 262 -55t155 -55q26 0 44 23.5t20 61.5l133 1v-527h-133q-52 206 -169 309t-298 103
q-136 0 -217.5 -59.5t-81.5 -157.5q0 -166 397 -251q41 -9 61 -13q311 -69 426 -172.5t115 -294.5q0 -202 -140.5 -330.5t-360.5 -128.5q-181 0 -356.5 88t-182.5 88q-35 0 -54.5 -32t-27.5 -105zM493 -379l39 90q59 -37 119.5 -57.5t112.5 -20.5q56 0 83 22t27 69
q0 43 -27.5 64.5t-82.5 21.5q-4 0 -16.5 -1.5t-43.5 -4.5v196h66v-115q16 2 31.5 3t37.5 1q81 0 130 -45.5t49 -119.5q0 -84 -59.5 -131.5t-166.5 -47.5q-58 0 -128.5 18t-170.5 58z" />
    <glyph glyph-name="scedilla" unicode="&#x15f;" horiz-adv-x="1042" 
d="M197 -33h-95v475h111q42 -164 145.5 -262t229.5 -98q84 0 137 45.5t53 116.5q0 66 -50 116.5t-183 110.5q-263 117 -337.5 194.5t-74.5 190.5q0 130 94 213.5t240 83.5q87 0 177.5 -43t94.5 -43q22 0 36.5 22.5t19.5 61.5h100v-373h-109q-48 125 -127.5 190.5
t-181.5 65.5q-72 0 -116 -37t-44 -96q0 -93 219 -191q43 -19 66 -30q215 -101 291 -187t76 -208q0 -138 -103 -229t-260 -91q-130 0 -281 82q-42 23 -53 23q-26 0 -43.5 -23.5t-31.5 -79.5zM278 -379l39 90q59 -37 119.5 -57.5t112.5 -20.5q56 0 83 22t27 69
q0 43 -27.5 64.5t-82.5 21.5q-4 0 -16.5 -1.5t-43.5 -4.5v196h66v-115q16 2 31.5 3t37.5 1q81 0 130 -45.5t49 -119.5q0 -84 -59.5 -131.5t-166.5 -47.5q-58 0 -128.5 18t-170.5 58z" />
    <glyph glyph-name="Cacute" unicode="&#x106;" horiz-adv-x="1602" 
d="M1520 518q-90 -276 -256 -416.5t-406 -140.5q-323 0 -529 217.5t-206 556.5q0 329 203 550.5t499 221.5q158 0 299 -64.5t148 -64.5q34 0 56 28t30 81h127l18 -604h-123q-66 233 -196.5 358t-306.5 125q-206 0 -333.5 -174t-127.5 -457q0 -293 125.5 -463t341.5 -170
q171 0 294.5 115.5t211.5 357.5zM676 1620l276 299q27 29 55 45t52 16q31 0 53.5 -23t22.5 -55q0 -27 -18 -48.5t-66 -51.5l-301 -182h-74z" />
    <glyph glyph-name="cacute" unicode="&#x107;" horiz-adv-x="1143" 
d="M1077 326q-58 -179 -172.5 -269t-283.5 -90q-232 0 -376.5 164t-144.5 428q0 267 147 430.5t384 163.5q167 0 278 -91t111 -220q0 -79 -43.5 -128.5t-112.5 -49.5q-67 0 -109 40t-42 105q0 54 51 113q18 21 26 32q-15 39 -54 59.5t-97 20.5q-144 0 -223.5 -124
t-79.5 -351q0 -233 76 -353t223 -120q117 0 204 71.5t134 207.5zM395 1264l276 299q27 29 55 45t52 16q31 0 53.5 -23t22.5 -55q0 -27 -18 -48.5t-66 -51.5l-301 -182h-74z" />
    <glyph glyph-name="Ccaron" unicode="&#x10c;" horiz-adv-x="1602" 
d="M1520 518q-90 -276 -256 -416.5t-406 -140.5q-323 0 -529 217.5t-206 556.5q0 329 203 550.5t499 221.5q158 0 299 -64.5t148 -64.5q34 0 56 28t30 81h127l18 -604h-123q-66 233 -196.5 358t-306.5 125q-206 0 -333.5 -174t-127.5 -457q0 -293 125.5 -463t341.5 -170
q171 0 294.5 115.5t211.5 357.5zM557 1968h74l221 -195l221 195h74l-229 -348h-134z" />
    <glyph glyph-name="ccaron" unicode="&#x10d;" horiz-adv-x="1143" 
d="M1077 326q-58 -179 -172.5 -269t-283.5 -90q-232 0 -376.5 164t-144.5 428q0 267 147 430.5t384 163.5q167 0 278 -91t111 -220q0 -79 -43.5 -128.5t-112.5 -49.5q-67 0 -109 40t-42 105q0 54 51 113q18 21 26 32q-15 39 -54 59.5t-97 20.5q-144 0 -223.5 -124
t-79.5 -351q0 -233 76 -353t223 -120q117 0 204 71.5t134 207.5zM276 1612h74l221 -195l221 195h74l-229 -348h-134z" />
    <glyph glyph-name="dcroat" unicode="&#x111;" horiz-adv-x="1382" 
d="M635 950q-145 0 -222 -108t-77 -310q0 -204 76.5 -310.5t222.5 -106.5q147 0 228 109t81 308q0 195 -82.5 306.5t-226.5 111.5zM967 193q-77 -114 -177 -171t-225 -57q-207 0 -336 154t-129 405t135 404t353 153q112 0 201 -44.5t167 -139.5v258h-407v115h407
q-5 82 -45.5 112t-158.5 35v94q99 7 201 14.5t204 16.5v-272h225v-115h-225v-854q0 -97 32 -131.5t130 -48.5v-121q-11 0 -31 1t-28 1q-71 0 -143 -5.5t-150 -16.5v213z" />
    <glyph glyph-name="sfthyphen" unicode="&#xad;" horiz-adv-x="778" 
d="M115 477v180h549v-180h-549z" />
    <glyph glyph-name="periodcentered" unicode="&#x2219;" horiz-adv-x="573" 
d="M147 735q0 57 41.5 97t98.5 40t97 -39.5t40 -97.5t-40 -98.5t-97 -40.5t-98.5 41t-41.5 98z" />
    <glyph glyph-name="euro" horiz-adv-x="1147" 
d="M18 946h140q36 262 167.5 411.5t323.5 149.5q110 0 195.5 -57t89.5 -57q24 0 36.5 22.5t16.5 71.5h103l6 -461h-111q-45 173 -125 256.5t-201 83.5q-112 0 -180 -107.5t-86 -312.5h475l-20 -98l-459 -1q-1 -19 -1.5 -42t-0.5 -70q0 -49 0.5 -71.5t1.5 -42.5h426l-20 -101
h-400q19 -220 83.5 -319t187.5 -99q108 0 190 90.5t131 260.5l121 -33q-66 -225 -184 -342t-279 -117q-204 0 -330 144t-157 415h-168l20 101h137q-2 43 -3 68t-1 46q0 20 1 44t3 69h-149z" />
    <glyph glyph-name="euro" unicode="&#x20ac;" horiz-adv-x="1147" 
d="M18 946h140q36 262 167.5 411.5t323.5 149.5q110 0 195.5 -57t89.5 -57q24 0 36.5 22.5t16.5 71.5h103l6 -461h-111q-45 173 -125 256.5t-201 83.5q-112 0 -180 -107.5t-86 -312.5h475l-20 -98l-459 -1q-1 -19 -1.5 -42t-0.5 -70q0 -49 0.5 -71.5t1.5 -42.5h426l-20 -101
h-400q19 -220 83.5 -319t187.5 -99q108 0 190 90.5t131 260.5l121 -33q-66 -225 -184 -342t-279 -117q-204 0 -330 144t-157 415h-168l20 101h137q-2 43 -3 68t-1 46q0 20 1 44t3 69h-149z" />
    </font>
</defs>
</svg>
